<svg width="336" height="235.2" xmlns="http://www.w3.org/2000/svg">
 <g>
  <title>background</title>
  <rect x="-1" y="-1" width="338" height="237.2" id="canvas_background" fill="none"/>
 </g>

 <g>
  <title>Layer 1</title>
  <g transform="matrix(0.9999999999999999,0,0,0.9999999999999999,-2.842170943040401e-14,0) " id="svg_1">
   <path d="m0,0l336,0l0,235.199997l-336,0l0,-235.199997z" class="st0" fill=" rgb(69, 166, 168)" id="svg_2"/>
  </g>
  <g transform="matrix(0.9999999999999999,0,0,0.9999999999999999,-2.842170943040401e-14,0) " id="svg_3">
   <path class="st1" d="m209.4,244c38.7,-16.7 65.9,-55.6 65.9,-101c0,-60.6 -48.4,-109.7 -108.1,-109.7c-59.7,0.1 -108.1,49.2 -108.1,109.7c0,45.4 27.2,84.3 65.9,101l84.4,0z" fill="#2f3640" id="svg_4"/>
  </g>
  <path class="st3" d="m7.5,197l25.6,-34.7l9,4.9l15.6,-25.2l12.4,2.4c0,0 14.3,-30.7 14.7,-28.9c0.4,1.8 12.7,23.2 12.7,23.2l18.7,-33.6l16.4,29.5l14.2,-45.6l11.7,32l25.5,-36l16.2,9.5l12.5,44.7l13.8,-13.7l4.4,30.4l20,-16.7l12,23.1l15.9,1.9l5.7,19" fill=" rgb(88, 94, 109)" id="svg_5"/>
  <path d="m193.600006,51.900002l6.599991,-0.800004l-3.300003,5.600003l3,6l-13,1.099998" class="st5" fill=" rgb(208, 60, 0)" id="svg_6"/>
  <path d="m176.600006,51.900002l17.399994,-2.300004l0.199997,11.300004l-18,2.099998" class="st6" fill=" rgb(244, 76, 0)" id="svg_7"/>
  <path d="m186.899994,63.799999l1.200012,-2.200001l6.099991,-0.699996" class="st7" fill=" rgb(173, 0, 0)" id="svg_8"/>
  <g id="svg_9">
   <path d="m175.800003,50.200001l0.8,0l0,23.5l-0.8,0l0,-23.5z" class="st3" fill=" rgb(88, 94, 109)" id="svg_10"/>
  </g>
  <path class="st8" d="m57.7,197l-43.6,0c14.1,0 19.8,-5.9 19.8,-5.9c26.1,-28 36.2,-26.9 36.2,-26.9" fill=" rgb(176, 220, 73)" id="svg_11"/>
  <g transform="matrix(0.9999999999999999,0,0,0.9999999999999999,-2.842170943040401e-14,0) " id="svg_12">
   <g id="svg_13">
    <path d="m157.5,108.699997l18.699997,-37.699997l18.699997,35.699997l-3.099991,20.600006l-45,17.099991" class="st4" fill=" rgb(249, 245, 235)" id="svg_14"/>
   </g>
  </g>
  <g transform="matrix(0.9999999999999999,0,0,0.9999999999999999,-5.684341886080802e-14,0) " id="svg_15">
   <path d="m196.600006,147.699997l17.899994,-12.300003l3.5,-12.899994l12.899994,23.100006l0,27.599991l-34.599991,0.5" class="st4" fill=" rgb(249, 245, 235)" id="svg_16"/>
  </g>
  <g transform="matrix(0.9999999999999999,0,0,0.9999999999999999,-5.684341886080802e-14,0) " id="svg_17">
   <path d="m263.799988,197l-11.299988,-23.300003l-21.600006,-28.099991l-3.199997,10.299988l-4.800003,-10.299988l-4.899994,18.5l-4.399994,-13.700012l-7.100006,14.100006l0,-18.899994l-43.5,51.299988l3.5,0.100006l97.299988,0z" class="st9" fill=" rgb(107, 116, 133)" id="svg_18"/>
  </g>
  <g transform="matrix(0.9999999999999999,0,0,0.9999999999999999,-5.684341886080802e-14,0) " id="svg_19">
   <path d="m178.5,197l28,-51.399994l-11.800003,-38.200004l-2.599991,15.099998l-6.100006,-10.900002l-7.600006,20.000008l-7.299988,-31.700004l-8.400009,18.299995l-5.599991,-8.099999l-14.100006,16l-33.599998,57.099999l0,13.800003l69.099998,0z" class="st9" fill=" rgb(107, 116, 133)" id="svg_20"/>
  </g>
  <g transform="matrix(0.9999999999999999,0,0,0.9999999999999999,-5.684341886080802e-14,0) " id="svg_21">
   <path d="m172.399994,182.899994l4.700012,14.100006l1.399994,0l2,-3.699997l26,-47.699997l-11.600006,-38.900009l-2.799988,15.800003l-6.100006,-10.900002l-7.600006,20.000008l-3.199997,-12.000008l-7.099991,14.299996l4.799988,10.100006l-9.099991,9.800003l8.599991,29.099991z" class="st3" fill=" rgb(88, 94, 109)" id="svg_22"/>
  </g>
  <g transform="matrix(0.9999999999999999,0,0,0.9999999999999999,-5.684341886080802e-14,0) " id="svg_23">
   <path d="m236.199997,185.800003l-2.199997,11.199997l29.799988,0l-11.299988,-23.300003l-21.600006,-28.099991l-3.199997,10.299988l-4.800003,-10.299988l-4.899994,18.5l9.800003,6.799988l8.399994,14.900009z" class="st3" fill=" rgb(88, 94, 109)" id="svg_24"/>
  </g>
  <g transform="matrix(0.9999999999999999,0,0,0.9999999999999999,-5.684341886080802e-14,0) " id="svg_25">
   <path d="m176.199997,71l3.300003,23.199997l6.5,17.400001l6.100006,10.900002l2.799988,-15.800003" class="st10" fill=" rgb(237, 233, 223)" id="svg_26"/>
  </g>
  <g transform="matrix(0.9999999999999999,0,0,0.9999999999999999,-5.684341886080802e-14,0) " id="svg_27">
   <path d="m218,122.5l1.199997,13.5l3.699997,9.600006l4.800003,10.299988l3.199997,-10.299988" class="st10" fill=" rgb(237, 233, 223)" id="svg_28"/>
  </g>
  <g transform="matrix(0.9999999999999999,0,0,0.9999999999999999,-2.842170943040401e-14,0) " id="svg_29">
   <g id="svg_30">
    <path d="m99.800003,120.099998l16.399994,-33.099998l16.400009,31.400002l-2.800003,17.999992l-39.400001,15" class="st4" fill=" rgb(249, 245, 235)" id="svg_31"/>
   </g>
  </g>
  <g transform="matrix(0.9999999999999999,0,0,0.9999999999999999,-5.684341886080802e-14,0) " id="svg_32">
   <path d="m134.100006,154.300003l15.599991,-10.900009l3.199997,-11.199997l11.200012,20.199997l0,24.200012l-30.300003,0.5" class="st4" fill=" rgb(249, 245, 235)" id="svg_33"/>
  </g>
  <g transform="matrix(0.9999999999999999,0,0,0.9999999999999999,-5.684341886080802e-14,0) " id="svg_34">
   <path d="m104.900002,197l87.900001,0l-9.699997,-19.899994l-19,-24.700012l-2.700012,9l-4.299988,-9l-4.200012,16.200012l-3.899994,-12l-6.199997,12.399994l0,-16.600006l-37.900001,44.600006z" class="st9" fill=" rgb(107, 116, 133)" id="svg_35"/>
  </g>
  <g transform="matrix(0.9999999999999999,0,0,0.9999999999999999,-5.684341886080802e-14,0) " id="svg_36">
   <path d="m118.400002,197l24.400001,-44.600006l-10.400009,-33.499992l-2.299988,13.299995l-5.300003,-9.599999l-6.700005,17.599999l-6.400001,-27.799995l-7.399994,15.999992l-4.900001,-7.099991l-12.300004,14l-29.399997,50l0,11.699997l60.700001,0z" class="st9" fill=" rgb(107, 116, 133)" id="svg_37"/>
  </g>
  <g transform="matrix(0.9999999999999999,0,0,0.9999999999999999,-5.684341886080802e-14,0) " id="svg_38">
   <path d="m112.800003,185.199997l4,11.800003l1.599999,0l1.5,-2.699997l22.900001,-41.900009l-10.199997,-33.999992l-2.5,13.799995l-5.300003,-9.599999l-6.700005,17.599999l-2.799995,-10.599991l-6.200005,12.599991l4.200005,8.800003l-8,8.600006l7.5,25.599991z" class="st3" fill=" rgb(88, 94, 109)" id="svg_39"/>
  </g>
  <g transform="matrix(0.9999999999999999,0,0,0.9999999999999999,-5.684341886080802e-14,0) " id="svg_40">
   <path d="m168.800003,187.699997l-1.800003,9.300003l25.800003,0l-9.699997,-19.899994l-19,-24.700012l-2.700012,9l-4.299988,-9l-4.200012,16.200012l8.5,6l7.400009,13.099991z" class="st3" fill=" rgb(88, 94, 109)" id="svg_41"/>
  </g>
  <g transform="matrix(0.9999999999999999,0,0,0.9999999999999999,-5.684341886080802e-14,0) " id="svg_42">
   <path d="m116.199997,87l2.900001,20.400002l5.700005,15.199996l5.300003,9.599999l2.5,-13.799995" class="st10" fill=" rgb(237, 233, 223)" id="svg_43"/>
  </g>
  <g transform="matrix(0.9999999999999999,0,0,0.9999999999999999,-5.684341886080802e-14,0) " id="svg_44">
   <path d="m152.899994,132.199997l1,11.800003l3.200012,8.399994l4.299988,9l2.700012,-9" class="st10" fill=" rgb(237, 233, 223)" id="svg_45"/>
  </g>
  <path class="st11" d="m194.8,197l127.8,2.7c-9.6,-1.3 -18.4,-6 -25.2,-9.3c-6.9,-3.3 -9.8,-8 -15.4,-10c-5.6,-2 -25.7,-3.3 -25.7,-3.3l-18.1,-24.7l-14.7,16.6l-15,4.8l-10.2,-9.5l-13.2,17.1" fill=" rgb(86, 205, 107)" id="svg_46"/>
  <path class="st11" d="m84.8,139.2c0,0 14.3,10.5 28.5,11.8c14.2,1.3 15.5,10.4 15.5,10.4l7.2,3.3l-7.8,14.3c0,0 -51.2,-31.9 -70.6,6.3" fill=" rgb(86, 205, 107)" id="svg_47"/>
  <path class="st12" d="m243.2,170c-1.1,-0.8 -2.1,-1.7 -3.1,-2.6c-2.8,-2.5 -5.6,-5.1 -8.4,-7.7l-8.2,9.3l9.9,11.7l-2.5,13.6l10.1,3.6l19.2,0.4c-5.4,-5.9 -10.2,-12.5 -13.5,-19.7c-1.3,-2.8 -2.4,-5.7 -3.5,-8.6z" fill=" rgb(65, 171, 128)" id="svg_48"/>
  <path class="st13" d="m256.2,177.1l18.8,9.4l0,5l15.5,8.2l10.8,-0.4c0,0 -26.4,-16.2 -25.6,-20.2" fill=" rgb(78, 184, 90)" id="svg_49"/>
  <path d="m208.5,173.699997l-12.199997,5.300003l2.199997,9.399994l-10.399994,-2.399994l-2.900009,-4.699997l13.100006,-17.100006" class="st14" fill=" rgb(175, 215, 68)" id="svg_50"/>
  <path class="st13" d="m118.4,197l9.8,-18c0,0 -37.6,-26.8 -63,-4.5c0,0 -11.4,10.8 -13.4,22.5" fill=" rgb(78, 184, 90)" id="svg_51"/>
  <path class="st12" d="m113.3,151l5.6,11.2l-4,11.5l7,16.3l14.1,-25.3c0,0 -7.5,-12.9 -22.7,-13.7z" fill=" rgb(65, 171, 128)" id="svg_52"/>
  <path d="m98.300003,146.800003l-12.100006,5.099991l-9,10.400009l-2.699997,8.199997l-12.200001,7.100006l22.799999,-39" class="st8" fill=" rgb(176, 220, 73)" id="svg_53"/>
  <path class="st11" d="m70.1,164.2c0,0 -3.3,9.1 -7.8,13.4c-5.4,5.2 -10.4,17.9 -10.4,19.4l-10.3,0c0,0 15.2,-28.2 28.5,-32.8z" fill=" rgb(86, 205, 107)" id="svg_54"/>
  <g transform="matrix(0.9999999999999999,0,0,0.9999999999999999,-2.842170943040401e-14,0) " id="svg_55">
   <g id="svg_56">
    <path d="m256.100006,176.300003l0,7.899994" class="st15" fill=" rgb(116, 140, 152)" id="svg_57"/>
   </g>
   <g id="svg_58">
    <path class="st3" d="m256.1,184.7c-0.3,0 -0.5,-0.2 -0.5,-0.5l0,-7.9c0,-0.3 0.2,-0.5 0.5,-0.5c0.3,0 0.5,0.2 0.5,0.5l0,7.9c0,0.3 -0.2,0.5 -0.5,0.5z" fill=" rgb(88, 94, 109)" id="svg_59"/>
   </g>
  </g>
  <g transform="matrix(0.9999999999999999,0,0,0.9999999999999999,-5.684341886080802e-14,0) " id="svg_60">
   <path d="m256.200012,166.5l-3.000015,16.699997l3.000015,0" class="st16" fill=" rgb(189, 243, 126)" id="svg_61"/>
  </g>
  <g transform="matrix(0.9999999999999999,0,0,0.9999999999999999,-5.684341886080802e-14,0) " id="svg_62">
   <path d="m256.100006,166.5l3.100006,16.699997l-3.100006,0" class="st16" fill=" rgb(189, 243, 126)" id="svg_63"/>
  </g>
  <g transform="matrix(0.9999999999999999,0,0,0.9999999999999999,-2.842170943040401e-14,0) " id="svg_64">
   <g id="svg_65">
    <path d="m243.899994,172l0,7.899994" class="st15" fill=" rgb(116, 140, 152)" id="svg_66"/>
   </g>
   <g id="svg_67">
    <path class="st3" d="m243.9,180.4c-0.3,0 -0.5,-0.2 -0.5,-0.5l0,-7.9c0,-0.3 0.2,-0.5 0.5,-0.5c0.3,0 0.5,0.2 0.5,0.5l0,7.9c-0.1,0.3 -0.3,0.5 -0.5,0.5z" fill=" rgb(88, 94, 109)" id="svg_68"/>
   </g>
  </g>
  <g transform="matrix(0.9999999999999999,0,0,0.9999999999999999,-5.684341886080802e-14,0) " id="svg_69">
   <path d="m244,162.199997l-3.100006,16.699997l3.100006,0" class="st16" fill=" rgb(189, 243, 126)" id="svg_70"/>
  </g>
  <g transform="matrix(0.9999999999999999,0,0,0.9999999999999999,-5.684341886080802e-14,0) " id="svg_71">
   <path d="m243.899994,162.199997l3,16.699997l-3,0" class="st16" fill=" rgb(189, 243, 126)" id="svg_72"/>
  </g>
  <g transform="matrix(0.9999999999999999,0,0,0.9999999999999999,-2.842170943040401e-14,0) " id="svg_73">
   <g id="svg_74">
    <path d="m268.299988,183.899994l0,8" class="st15" fill=" rgb(116, 140, 152)" id="svg_75"/>
   </g>
   <g id="svg_76">
    <path class="st3" d="m268.3,192.3c-0.3,0 -0.5,-0.2 -0.5,-0.5l0,-7.9c0,-0.3 0.2,-0.5 0.5,-0.5c0.3,0 0.5,0.2 0.5,0.5l0,7.9c0,0.3 -0.2,0.5 -0.5,0.5z" fill=" rgb(88, 94, 109)" id="svg_77"/>
   </g>
  </g>
  <g transform="matrix(0.9999999999999999,0,0,0.9999999999999999,-5.684341886080802e-14,0) " id="svg_78">
   <path d="m268.399994,174.100006l-3,16.799988l3,0" class="st16" fill=" rgb(189, 243, 126)" id="svg_79"/>
  </g>
  <g transform="matrix(0.9999999999999999,0,0,0.9999999999999999,-5.684341886080802e-14,0) " id="svg_80">
   <path d="m268.399994,174.100006l3,16.799988l-3,0" class="st16" fill=" rgb(189, 243, 126)" id="svg_81"/>
  </g>
  <g transform="matrix(0.9999999999999999,0,0,0.9999999999999999,-2.842170943040401e-14,0) " id="svg_82">
   <g id="svg_83">
    <path d="m237.899994,186.899994l0,7.900009" class="st15" fill=" rgb(116, 140, 152)" id="svg_84"/>
   </g>
   <g id="svg_85">
    <path class="st3" d="m237.9,195.3c-0.3,0 -0.5,-0.2 -0.5,-0.5l0,-7.9c0,-0.3 0.2,-0.5 0.5,-0.5c0.3,0 0.5,0.2 0.5,0.5l0,7.9c-0.1,0.3 -0.3,0.5 -0.5,0.5z" fill=" rgb(88, 94, 109)" id="svg_86"/>
   </g>
  </g>
  <g transform="matrix(0.9999999999999999,0,0,0.9999999999999999,-5.684341886080802e-14,0) " id="svg_87">
   <path d="m237.899994,177.100006l-3,16.699997l3,0" class="st16" fill=" rgb(189, 243, 126)" id="svg_88"/>
  </g>
  <g transform="matrix(0.9999999999999999,0,0,0.9999999999999999,-5.684341886080802e-14,0) " id="svg_89">
   <path d="m237.899994,177.100006l3,16.699997l-3,0" class="st16" fill=" rgb(189, 243, 126)" id="svg_90"/>
  </g>
  <g transform="matrix(0.9999999999999999,0,0,0.9999999999999999,-2.842170943040401e-14,0) " id="svg_91">
   <g id="svg_92">
    <path d="m223.399994,180.600006l0,7.899994" class="st15" fill=" rgb(116, 140, 152)" id="svg_93"/>
   </g>
   <g id="svg_94">
    <path class="st3" d="m223.4,189c-0.3,0 -0.5,-0.2 -0.5,-0.5l0,-7.9c0,-0.3 0.2,-0.5 0.5,-0.5c0.3,0 0.5,0.2 0.5,0.5l0,7.9c0,0.3 -0.2,0.5 -0.5,0.5z" fill=" rgb(88, 94, 109)" id="svg_95"/>
   </g>
  </g>
  <g transform="matrix(0.9999999999999999,0,0,0.9999999999999999,-5.684341886080802e-14,0) " id="svg_96">
   <path d="m223.5,170.800003l-3,16.699997l3,0" class="st16" fill=" rgb(189, 243, 126)" id="svg_97"/>
  </g>
  <g transform="matrix(0.9999999999999999,0,0,0.9999999999999999,-5.684341886080802e-14,0) " id="svg_98">
   <path d="m223.399994,170.800003l3.100006,16.699997l-3.100006,0" class="st16" fill=" rgb(189, 243, 126)" id="svg_99"/>
  </g>
  <g transform="matrix(0.9999999999999999,0,0,0.9999999999999999,-2.842170943040401e-14,0) " id="svg_100">
   <g id="svg_101">
    <path d="m100.5,179.899994l0,7.900009" class="st15" fill=" rgb(116, 140, 152)" id="svg_102"/>
   </g>
   <g id="svg_103">
    <path class="st3" d="m100.5,188.3c-0.3,0 -0.5,-0.2 -0.5,-0.5l0,-7.9c0,-0.3 0.2,-0.5 0.5,-0.5c0.3,0 0.5,0.2 0.5,0.5l0,7.9c-0.1,0.3 -0.3,0.5 -0.5,0.5z" fill=" rgb(88, 94, 109)" id="svg_104"/>
   </g>
  </g>
  <g transform="matrix(0.9999999999999999,0,0,0.9999999999999999,-5.684341886080802e-14,0) " id="svg_105">
   <path d="m100.5,170.100006l-3,16.699997l3,0" class="st16" fill=" rgb(189, 243, 126)" id="svg_106"/>
  </g>
  <g transform="matrix(0.9999999999999999,0,0,0.9999999999999999,-5.684341886080802e-14,0) " id="svg_107">
   <path d="m100.5,170.100006l3,16.699997l-3,0" class="st16" fill=" rgb(189, 243, 126)" id="svg_108"/>
  </g>
  <g transform="matrix(0.9999999999999999,0,0,0.9999999999999999,-2.842170943040401e-14,0) " id="svg_109">
   <g id="svg_110">
    <path d="m90,167.199997l0,7.900009" class="st15" fill=" rgb(116, 140, 152)" id="svg_111"/>
   </g>
   <g id="svg_112">
    <path class="st3" d="m90,175.6c-0.3,0 -0.5,-0.2 -0.5,-0.5l0,-7.9c0,-0.3 0.2,-0.5 0.5,-0.5c0.3,0 0.5,0.2 0.5,0.5l0,7.9c0,0.3 -0.2,0.5 -0.5,0.5z" fill=" rgb(88, 94, 109)" id="svg_113"/>
   </g>
  </g>
  <g transform="matrix(0.9999999999999999,0,0,0.9999999999999999,-5.684341886080802e-14,0) " id="svg_114">
   <path d="m90.099998,157.399994l-3.099998,16.700012l3.099998,0" class="st16" fill=" rgb(189, 243, 126)" id="svg_115"/>
  </g>
  <g transform="matrix(0.9999999999999999,0,0,0.9999999999999999,-5.684341886080802e-14,0) " id="svg_116">
   <path d="m90,157.399994l3.099998,16.700012l-3.099998,0" class="st16" fill=" rgb(189, 243, 126)" id="svg_117"/>
  </g>
  <g transform="matrix(0.9999999999999999,0,0,0.9999999999999999,-2.842170943040401e-14,0) " id="svg_118">
   <g id="svg_119">
    <path d="m67,178.300003l0,8" class="st15" fill=" rgb(116, 140, 152)" id="svg_120"/>
   </g>
   <g id="svg_121">
    <path class="st3" d="m67,186.7c-0.3,0 -0.5,-0.2 -0.5,-0.5l0,-7.9c0,-0.3 0.2,-0.5 0.5,-0.5c0.3,0 0.5,0.2 0.5,0.5l0,7.9c0,0.3 -0.2,0.5 -0.5,0.5z" fill=" rgb(88, 94, 109)" id="svg_122"/>
   </g>
  </g>
  <g transform="matrix(0.9999999999999999,0,0,0.9999999999999999,-5.684341886080802e-14,0) " id="svg_123">
   <path d="m67.099998,168.5l-3,16.800003l3,0" class="st16" fill=" rgb(189, 243, 126)" id="svg_124"/>
  </g>
  <g transform="matrix(0.9999999999999999,0,0,0.9999999999999999,-5.684341886080802e-14,0) " id="svg_125">
   <path d="m67.099998,168.5l3,16.800003l-3,0" class="st16" fill=" rgb(189, 243, 126)" id="svg_126"/>
  </g>
  <g transform="matrix(0.9999999999999999,0,0,0.9999999999999999,-2.842170943040401e-14,0) " id="svg_127">
   <g id="svg_128">
    <path d="m83.300003,184.199997l0,7.900009" class="st15" fill=" rgb(116, 140, 152)" id="svg_129"/>
   </g>
   <g id="svg_130">
    <path class="st3" d="m83.3,192.6c-0.3,0 -0.5,-0.2 -0.5,-0.5l0,-7.9c0,-0.3 0.2,-0.5 0.5,-0.5c0.3,0 0.5,0.2 0.5,0.5l0,7.9c-0.1,0.3 -0.3,0.5 -0.5,0.5z" fill=" rgb(88, 94, 109)" id="svg_131"/>
   </g>
  </g>
  <g transform="matrix(0.9999999999999999,0,0,0.9999999999999999,-5.684341886080802e-14,0) " id="svg_132">
   <path d="m83.300003,174.399994l-3,16.700012l3,0" class="st16" fill=" rgb(189, 243, 126)" id="svg_133"/>
  </g>
  <g transform="matrix(0.9999999999999999,0,0,0.9999999999999999,-5.684341886080802e-14,0) " id="svg_134">
   <path d="m83.300003,174.399994l3,16.700012l-3,0" class="st16" fill=" rgb(189, 243, 126)" id="svg_135"/>
  </g>
  <g transform="matrix(0.9999999999999999,0,0,0.9999999999999999,-2.842170943040401e-14,0) " id="svg_136">
   <g id="svg_137">
    <path d="m109.400002,169.199997l0,8" class="st15" fill=" rgb(116, 140, 152)" id="svg_138"/>
   </g>
   <g id="svg_139">
    <path class="st3" d="m109.4,177.6c-0.3,0 -0.5,-0.2 -0.5,-0.5l0,-7.9c0,-0.3 0.2,-0.5 0.5,-0.5c0.3,0 0.5,0.2 0.5,0.5l0,7.9c0,0.3 -0.2,0.5 -0.5,0.5z" fill=" rgb(88, 94, 109)" id="svg_140"/>
   </g>
  </g>
  <g transform="matrix(0.9999999999999999,0,0,0.9999999999999999,-5.684341886080802e-14,0) " id="svg_141">
   <path d="m109.5,159.399994l-3.099998,16.800003l3.099998,0" class="st16" fill=" rgb(189, 243, 126)" id="svg_142"/>
  </g>
  <g transform="matrix(0.9999999999999999,0,0,0.9999999999999999,-5.684341886080802e-14,0) " id="svg_143">
   <path d="m109.400002,159.399994l3.099998,16.800003l-3.099998,0" class="st16" fill=" rgb(189, 243, 126)" id="svg_144"/>
  </g>
  <path d="m147.599997,70.400002a9.4,9.4 0 0 1 -9.4,9.399999a9.4,9.4 0 0 1 -9.4,-9.399999a9.4,9.4 0 0 1 9.4,-9.4a9.4,9.4 0 0 1 9.4,9.4z" class="st18" fill=" rgb(255, 231, 161)" id="svg_145"/>
 </g>
</svg>