<svg width="336" height="235.2" xmlns="http://www.w3.org/2000/svg">
 <g>
  <title>background</title>
  <rect x="-1" y="-1" width="338" height="237.2" id="canvas_background" fill="none"/>
 </g>

 <g>
  <title>Layer 1</title>
  <g transform="matrix(0.9999999999999999,0,0,0.9999999999999999,-2.842170943040401e-14,0) " id="svg_1">
   <path d="m0,0l336,0l0,235.2l-336,0l0,-235.2z" class="st0" fill=" rgb(69, 166, 168)" id="svg_2"/>
  </g>
  <g transform="matrix(0.9999999999999999,0,0,0.9999999999999999,-2.842170943040401e-14,0) " id="svg_3">
   <path class="st1" d="m215.4,234c38.7,-16.7 65.9,-55.6 65.9,-101c0,-60.6 -48.4,-109.7 -108.1,-109.7c-59.7,0.1 -108.1,49.2 -108.1,109.7c0,45.4 27.2,84.3 65.9,101l84.4,0z" fill="#2f3640" id="svg_4"/>
  </g>
  <path class="st3" d="m7.5,235l25.6,-34.7l9,4.9l15.6,-25.2l12.4,2.4c0,0 14.3,-30.7 14.7,-28.9c0.4,1.8 12.7,23.2 12.7,23.2l18.7,-33.6l16.4,29.5l14.2,-45.6l11.7,32l25.5,-36l16.2,9.5l12.5,44.7l13.8,-13.7l4.4,30.4l20,-16.7l12,23.1l15.9,1.9l5.7,19" fill=" rgb(88, 94, 109)" id="svg_5"/>
  <path d="m193.60001,89.9l6.59999,-0.8l-3.30001,5.6l3,6l-13,1.1" class="st5" fill="#ededef" id="svg_6"/>
  <path d="m176.60001,89.9l17.39999,-2.3l0.2,11.3l-18,2.1" class="st6" fill="#ffffff" id="svg_7"/>
  <path d="m186.89999,101.8l1.20002,-2.2l6.09999,-0.7" class="st7" fill="#bfbdbd" id="svg_8"/>
  <g transform="matrix(0.9999999999999999,0,0,0.9999999999999999,-2.842170943040401e-14,0) " id="svg_9">
   <path d="m175.8,88.2l0.8,0l0,23.5l-0.8,0l0,-23.5z" class="st3" fill=" rgb(88, 94, 109)" id="svg_10"/>
  </g>
  <path class="st8" d="m57.7,235l-43.6,0c14.1,0 19.8,-5.9 19.8,-5.9c26.1,-28 36.2,-26.9 36.2,-26.9" fill=" rgb(176, 220, 73)" id="svg_11"/>
  <g transform="matrix(0.9999999999999999,0,0,0.9999999999999999,-2.842170943040401e-14,0) " id="svg_12">
   <g id="svg_13">
    <path d="m157.5,146.7l18.7,-37.7l18.69999,35.7l-3.09999,20.6l-45,17.09999" class="st4" fill=" rgb(249, 245, 235)" id="svg_14"/>
   </g>
  </g>
  <g transform="matrix(0.9999999999999999,0,0,0.9999999999999999,-5.684341886080802e-14,0) " id="svg_15">
   <path d="m196.60001,185.7l17.89999,-12.30001l3.5,-12.89999l12.89999,23.10001l0,27.59999l-34.59999,0.5" class="st4" fill=" rgb(249, 245, 235)" id="svg_16"/>
  </g>
  <g transform="matrix(0.9999999999999999,0,0,0.9999999999999999,-5.684341886080802e-14,0) " id="svg_17">
   <path d="m263.79999,235l-11.29999,-23.3l-21.60001,-28.09999l-3.19999,10.29998l-4.80001,-10.29998l-4.89999,18.5l-4.39999,-13.70002l-7.10001,14.10001l0,-18.89999l-43.5,51.29998l3.5,0.10001l97.29999,0z" class="st9" fill=" rgb(107, 116, 133)" id="svg_18"/>
  </g>
  <g transform="matrix(0.9999999999999999,0,0,0.9999999999999999,-5.684341886080802e-14,0) " id="svg_19">
   <path d="m178.5,235l28,-51.39999l-11.8,-38.20001l-2.59999,15.1l-6.10001,-10.9l-7.60001,20.00001l-7.29998,-31.70001l-8.40001,18.3l-5.59999,-8.1l-14.10001,16l-33.6,57.1l0,13.8l69.1,0z" class="st9" fill=" rgb(107, 116, 133)" id="svg_20"/>
  </g>
  <g transform="matrix(0.9999999999999999,0,0,0.9999999999999999,-5.684341886080802e-14,0) " id="svg_21">
   <path d="m172.39999,220.89999l4.70002,14.10001l1.39999,0l2,-3.7l26,-47.69999l-11.60001,-38.90001l-2.79998,15.8l-6.10001,-10.9l-7.60001,20.00001l-3.19999,-12.00001l-7.09999,14.29999l4.79998,10.10001l-9.09999,9.8l8.59999,29.09999z" class="st3" fill=" rgb(88, 94, 109)" id="svg_22"/>
  </g>
  <g transform="matrix(0.9999999999999999,0,0,0.9999999999999999,-5.684341886080802e-14,0) " id="svg_23">
   <path d="m236.2,223.8l-2.2,11.2l29.79999,0l-11.29999,-23.3l-21.60001,-28.09999l-3.19999,10.29998l-4.80001,-10.29998l-4.89999,18.5l9.8,6.79998l8.4,14.90001z" class="st3" fill=" rgb(88, 94, 109)" id="svg_24"/>
  </g>
  <g transform="matrix(0.9999999999999999,0,0,0.9999999999999999,-5.684341886080802e-14,0) " id="svg_25">
   <path d="m176.2,109l3.3,23.2l6.5,17.4l6.10001,10.9l2.79998,-15.8" class="st10" fill=" rgb(237, 233, 223)" id="svg_26"/>
  </g>
  <g transform="matrix(0.9999999999999999,0,0,0.9999999999999999,-5.684341886080802e-14,0) " id="svg_27">
   <path d="m218,160.5l1.2,13.5l3.69999,9.60001l4.80001,10.29998l3.19999,-10.29998" class="st10" fill=" rgb(237, 233, 223)" id="svg_28"/>
  </g>
  <g transform="matrix(0.9999999999999999,0,0,0.9999999999999999,-2.842170943040401e-14,0) " id="svg_29">
   <g id="svg_30">
    <path d="m99.8,158.1l16.4,-33.1l16.40001,31.4l-2.80001,17.99999l-39.4,15" class="st4" fill=" rgb(249, 245, 235)" id="svg_31"/>
   </g>
  </g>
  <g transform="matrix(0.9999999999999999,0,0,0.9999999999999999,-5.684341886080802e-14,0) " id="svg_32">
   <path d="m134.10001,192.3l15.59999,-10.90001l3.19999,-11.19999l11.20002,20.19999l0,24.20002l-30.30001,0.5" class="st4" fill=" rgb(249, 245, 235)" id="svg_33"/>
  </g>
  <g transform="matrix(0.9999999999999999,0,0,0.9999999999999999,-5.684341886080802e-14,0) " id="svg_34">
   <path d="m104.9,235l87.9,0l-9.69999,-19.89999l-19,-24.70002l-2.70002,9l-4.29998,-9l-4.20002,16.20002l-3.89999,-12l-6.2,12.39999l0,-16.60001l-37.9,44.60001z" class="st9" fill=" rgb(107, 116, 133)" id="svg_35"/>
  </g>
  <g transform="matrix(0.9999999999999999,0,0,0.9999999999999999,-5.684341886080802e-14,0) " id="svg_36">
   <path d="m118.4,235l24.4,-44.60001l-10.40001,-33.49999l-2.29998,13.3l-5.30001,-9.6l-6.7,17.6l-6.4,-27.8l-7.4,15.99999l-4.9,-7.09999l-12.3,14l-29.4,50l0,11.7l60.7,0z" class="st9" fill=" rgb(107, 116, 133)" id="svg_37"/>
  </g>
  <g transform="matrix(0.9999999999999999,0,0,0.9999999999999999,-5.684341886080802e-14,0) " id="svg_38">
   <path d="m112.8,223.2l4,11.8l1.6,0l1.5,-2.7l22.9,-41.90001l-10.19999,-33.99999l-2.5,13.8l-5.30001,-9.6l-6.7,17.6l-2.8,-10.59999l-6.2,12.59999l4.2,8.8l-8,8.60001l7.5,25.59999z" class="st3" fill=" rgb(88, 94, 109)" id="svg_39"/>
  </g>
  <g transform="matrix(0.9999999999999999,0,0,0.9999999999999999,-5.684341886080802e-14,0) " id="svg_40">
   <path d="m168.8,225.7l-1.8,9.3l25.8,0l-9.69999,-19.89999l-19,-24.70002l-2.70002,9l-4.29998,-9l-4.20002,16.20002l8.5,6l7.40001,13.09999z" class="st3" fill=" rgb(88, 94, 109)" id="svg_41"/>
  </g>
  <g transform="matrix(0.9999999999999999,0,0,0.9999999999999999,-5.684341886080802e-14,0) " id="svg_42">
   <path d="m116.2,125l2.9,20.4l5.7,15.2l5.30001,9.6l2.5,-13.8" class="st10" fill=" rgb(237, 233, 223)" id="svg_43"/>
  </g>
  <g transform="matrix(0.9999999999999999,0,0,0.9999999999999999,-5.684341886080802e-14,0) " id="svg_44">
   <path d="m152.89999,170.2l1,11.8l3.20002,8.39999l4.29998,9l2.70002,-9" class="st10" fill=" rgb(237, 233, 223)" id="svg_45"/>
  </g>
  <path class="st11" d="m194.8,235l127.8,2.7c-9.6,-1.3 -18.4,-6 -25.2,-9.3c-6.9,-3.3 -9.8,-8 -15.4,-10c-5.6,-2 -25.7,-3.3 -25.7,-3.3l-18.1,-24.7l-14.7,16.6l-15,4.8l-10.2,-9.5l-13.2,17.1" fill=" rgb(86, 205, 107)" id="svg_46"/>
  <path class="st11" d="m84.8,177.2c0,0 14.3,10.5 28.5,11.8c14.2,1.3 15.5,10.4 15.5,10.4l7.2,3.3l-7.8,14.3c0,0 -51.2,-31.9 -70.6,6.3" fill=" rgb(86, 205, 107)" id="svg_47"/>
  <path class="st12" d="m243.2,208c-1.1,-0.8 -2.1,-1.7 -3.1,-2.6c-2.8,-2.5 -5.6,-5.1 -8.4,-7.7l-8.2,9.3l9.9,11.7l-2.5,13.6l10.1,3.6l19.2,0.4c-5.4,-5.9 -10.2,-12.5 -13.5,-19.7c-1.3,-2.8 -2.4,-5.7 -3.5,-8.6z" fill=" rgb(65, 171, 128)" id="svg_48"/>
  <path class="st13" d="m256.2,215.1l18.8,9.4l0,5l15.5,8.2l10.8,-0.4c0,0 -26.4,-16.2 -25.6,-20.2" fill=" rgb(78, 184, 90)" id="svg_49"/>
  <path d="m208.5,211.7l-12.2,5.3l2.2,9.39999l-10.39999,-2.39999l-2.90001,-4.7l13.1,-17.1" class="st14" fill=" rgb(175, 215, 68)" id="svg_50"/>
  <path class="st13" d="m118.4,235l9.8,-18c0,0 -37.6,-26.8 -63,-4.5c0,0 -11.4,10.8 -13.4,22.5" fill=" rgb(78, 184, 90)" id="svg_51"/>
  <path class="st12" d="m113.3,189l5.6,11.2l-4,11.5l7,16.3l14.1,-25.3c0,0 -7.5,-12.9 -22.7,-13.7z" fill=" rgb(65, 171, 128)" id="svg_52"/>
  <path d="m98.3,184.8l-12.1,5.09999l-9,10.40001l-2.7,8.2l-12.2,7.10001l22.8,-39" class="st8" fill=" rgb(176, 220, 73)" id="svg_53"/>
  <path class="st11" d="m70.1,202.2c0,0 -3.3,9.1 -7.8,13.4c-5.4,5.2 -10.4,17.9 -10.4,19.4l-10.3,0c0,0 15.2,-28.2 28.5,-32.8z" fill=" rgb(86, 205, 107)" id="svg_54"/>
  <g transform="matrix(0.9999999999999999,0,0,0.9999999999999999,-2.842170943040401e-14,0) " id="svg_55">
   <g id="svg_56">
    <path d="m256.10001,214.3l0,7.9" class="st15" fill=" rgb(116, 140, 152)" id="svg_57"/>
   </g>
   <g id="svg_58">
    <path class="st3" d="m256.1,222.7c-0.3,0 -0.5,-0.2 -0.5,-0.5l0,-7.9c0,-0.3 0.2,-0.5 0.5,-0.5c0.3,0 0.5,0.2 0.5,0.5l0,7.9c0,0.3 -0.2,0.5 -0.5,0.5z" fill=" rgb(88, 94, 109)" id="svg_59"/>
   </g>
  </g>
  <g transform="matrix(0.9999999999999999,0,0,0.9999999999999999,-5.684341886080802e-14,0) " id="svg_60">
   <path d="m256.20001,204.5l-3.00001,16.7l3.00001,0" class="st16" fill=" rgb(189, 243, 126)" id="svg_61"/>
  </g>
  <g transform="matrix(0.9999999999999999,0,0,0.9999999999999999,-5.684341886080802e-14,0) " id="svg_62">
   <path d="m256.10001,204.5l3.1,16.7l-3.1,0" class="st16" fill=" rgb(189, 243, 126)" id="svg_63"/>
  </g>
  <g transform="matrix(0.9999999999999999,0,0,0.9999999999999999,-2.842170943040401e-14,0) " id="svg_64">
   <g id="svg_65">
    <path d="m243.89999,210l0,7.89999" class="st15" fill=" rgb(116, 140, 152)" id="svg_66"/>
   </g>
   <g id="svg_67">
    <path class="st3" d="m243.9,218.4c-0.3,0 -0.5,-0.2 -0.5,-0.5l0,-7.9c0,-0.3 0.2,-0.5 0.5,-0.5c0.3,0 0.5,0.2 0.5,0.5l0,7.9c-0.1,0.3 -0.3,0.5 -0.5,0.5z" fill=" rgb(88, 94, 109)" id="svg_68"/>
   </g>
  </g>
  <g transform="matrix(0.9999999999999999,0,0,0.9999999999999999,-5.684341886080802e-14,0) " id="svg_69">
   <path d="m244,200.2l-3.10001,16.69999l3.10001,0" class="st16" fill=" rgb(189, 243, 126)" id="svg_70"/>
  </g>
  <g transform="matrix(0.9999999999999999,0,0,0.9999999999999999,-5.684341886080802e-14,0) " id="svg_71">
   <path d="m243.89999,200.2l3,16.69999l-3,0" class="st16" fill=" rgb(189, 243, 126)" id="svg_72"/>
  </g>
  <g transform="matrix(0.9999999999999999,0,0,0.9999999999999999,-2.842170943040401e-14,0) " id="svg_73">
   <g id="svg_74">
    <path d="m268.29999,221.89999l0,8" class="st15" fill=" rgb(116, 140, 152)" id="svg_75"/>
   </g>
   <g id="svg_76">
    <path class="st3" d="m268.3,230.3c-0.3,0 -0.5,-0.2 -0.5,-0.5l0,-7.9c0,-0.3 0.2,-0.5 0.5,-0.5c0.3,0 0.5,0.2 0.5,0.5l0,7.9c0,0.3 -0.2,0.5 -0.5,0.5z" fill=" rgb(88, 94, 109)" id="svg_77"/>
   </g>
  </g>
  <g transform="matrix(0.9999999999999999,0,0,0.9999999999999999,-5.684341886080802e-14,0) " id="svg_78">
   <path d="m268.39999,212.10001l-3,16.79998l3,0" class="st16" fill=" rgb(189, 243, 126)" id="svg_79"/>
  </g>
  <g transform="matrix(0.9999999999999999,0,0,0.9999999999999999,-5.684341886080802e-14,0) " id="svg_80">
   <path d="m268.39999,212.10001l3,16.79998l-3,0" class="st16" fill=" rgb(189, 243, 126)" id="svg_81"/>
  </g>
  <g transform="matrix(0.9999999999999999,0,0,0.9999999999999999,-2.842170943040401e-14,0) " id="svg_82">
   <g id="svg_83">
    <path d="m237.89999,224.89999l0,7.90001" class="st15" fill=" rgb(116, 140, 152)" id="svg_84"/>
   </g>
   <g id="svg_85">
    <path class="st3" d="m237.9,233.3c-0.3,0 -0.5,-0.2 -0.5,-0.5l0,-7.9c0,-0.3 0.2,-0.5 0.5,-0.5c0.3,0 0.5,0.2 0.5,0.5l0,7.9c-0.1,0.3 -0.3,0.5 -0.5,0.5z" fill=" rgb(88, 94, 109)" id="svg_86"/>
   </g>
  </g>
  <g transform="matrix(0.9999999999999999,0,0,0.9999999999999999,-5.684341886080802e-14,0) " id="svg_87">
   <path d="m237.89999,215.10001l-3,16.69999l3,0" class="st16" fill=" rgb(189, 243, 126)" id="svg_88"/>
  </g>
  <g transform="matrix(0.9999999999999999,0,0,0.9999999999999999,-5.684341886080802e-14,0) " id="svg_89">
   <path d="m237.89999,215.10001l3,16.69999l-3,0" class="st16" fill=" rgb(189, 243, 126)" id="svg_90"/>
  </g>
  <g transform="matrix(0.9999999999999999,0,0,0.9999999999999999,-2.842170943040401e-14,0) " id="svg_91">
   <g id="svg_92">
    <path d="m223.39999,218.60001l0,7.89999" class="st15" fill=" rgb(116, 140, 152)" id="svg_93"/>
   </g>
   <g id="svg_94">
    <path class="st3" d="m223.4,227c-0.3,0 -0.5,-0.2 -0.5,-0.5l0,-7.9c0,-0.3 0.2,-0.5 0.5,-0.5c0.3,0 0.5,0.2 0.5,0.5l0,7.9c0,0.3 -0.2,0.5 -0.5,0.5z" fill=" rgb(88, 94, 109)" id="svg_95"/>
   </g>
  </g>
  <g transform="matrix(0.9999999999999999,0,0,0.9999999999999999,-5.684341886080802e-14,0) " id="svg_96">
   <path d="m223.5,208.8l-3,16.7l3,0" class="st16" fill=" rgb(189, 243, 126)" id="svg_97"/>
  </g>
  <g transform="matrix(0.9999999999999999,0,0,0.9999999999999999,-5.684341886080802e-14,0) " id="svg_98">
   <path d="m223.39999,208.8l3.10001,16.7l-3.10001,0" class="st16" fill=" rgb(189, 243, 126)" id="svg_99"/>
  </g>
  <g transform="matrix(0.9999999999999999,0,0,0.9999999999999999,-2.842170943040401e-14,0) " id="svg_100">
   <g id="svg_101">
    <path d="m100.5,217.89999l0,7.90001" class="st15" fill=" rgb(116, 140, 152)" id="svg_102"/>
   </g>
   <g id="svg_103">
    <path class="st3" d="m100.5,226.3c-0.3,0 -0.5,-0.2 -0.5,-0.5l0,-7.9c0,-0.3 0.2,-0.5 0.5,-0.5c0.3,0 0.5,0.2 0.5,0.5l0,7.9c-0.1,0.3 -0.3,0.5 -0.5,0.5z" fill=" rgb(88, 94, 109)" id="svg_104"/>
   </g>
  </g>
  <g transform="matrix(0.9999999999999999,0,0,0.9999999999999999,-5.684341886080802e-14,0) " id="svg_105">
   <path d="m100.5,208.10001l-3,16.69999l3,0" class="st16" fill=" rgb(189, 243, 126)" id="svg_106"/>
  </g>
  <g transform="matrix(0.9999999999999999,0,0,0.9999999999999999,-5.684341886080802e-14,0) " id="svg_107">
   <path d="m100.5,208.10001l3,16.69999l-3,0" class="st16" fill=" rgb(189, 243, 126)" id="svg_108"/>
  </g>
  <g transform="matrix(0.9999999999999999,0,0,0.9999999999999999,-2.842170943040401e-14,0) " id="svg_109">
   <g id="svg_110">
    <path d="m90,205.2l0,7.90001" class="st15" fill=" rgb(116, 140, 152)" id="svg_111"/>
   </g>
   <g id="svg_112">
    <path class="st3" d="m90,213.6c-0.3,0 -0.5,-0.2 -0.5,-0.5l0,-7.9c0,-0.3 0.2,-0.5 0.5,-0.5c0.3,0 0.5,0.2 0.5,0.5l0,7.9c0,0.3 -0.2,0.5 -0.5,0.5z" fill=" rgb(88, 94, 109)" id="svg_113"/>
   </g>
  </g>
  <g transform="matrix(0.9999999999999999,0,0,0.9999999999999999,-5.684341886080802e-14,0) " id="svg_114">
   <path d="m90.1,195.39999l-3.1,16.70002l3.1,0" class="st16" fill=" rgb(189, 243, 126)" id="svg_115"/>
  </g>
  <g transform="matrix(0.9999999999999999,0,0,0.9999999999999999,-5.684341886080802e-14,0) " id="svg_116">
   <path d="m90,195.39999l3.1,16.70002l-3.1,0" class="st16" fill=" rgb(189, 243, 126)" id="svg_117"/>
  </g>
  <g transform="matrix(0.9999999999999999,0,0,0.9999999999999999,-2.842170943040401e-14,0) " id="svg_118">
   <g id="svg_119">
    <path d="m67,216.3l0,8" class="st15" fill=" rgb(116, 140, 152)" id="svg_120"/>
   </g>
   <g id="svg_121">
    <path class="st3" d="m67,224.7c-0.3,0 -0.5,-0.2 -0.5,-0.5l0,-7.9c0,-0.3 0.2,-0.5 0.5,-0.5c0.3,0 0.5,0.2 0.5,0.5l0,7.9c0,0.3 -0.2,0.5 -0.5,0.5z" fill=" rgb(88, 94, 109)" id="svg_122"/>
   </g>
  </g>
  <g transform="matrix(0.9999999999999999,0,0,0.9999999999999999,-5.684341886080802e-14,0) " id="svg_123">
   <path d="m67.1,206.5l-3,16.8l3,0" class="st16" fill=" rgb(189, 243, 126)" id="svg_124"/>
  </g>
  <g transform="matrix(0.9999999999999999,0,0,0.9999999999999999,-5.684341886080802e-14,0) " id="svg_125">
   <path d="m67.1,206.5l3,16.8l-3,0" class="st16" fill=" rgb(189, 243, 126)" id="svg_126"/>
  </g>
  <g transform="matrix(0.9999999999999999,0,0,0.9999999999999999,-2.842170943040401e-14,0) " id="svg_127">
   <g id="svg_128">
    <path d="m83.3,222.2l0,7.90001" class="st15" fill=" rgb(116, 140, 152)" id="svg_129"/>
   </g>
   <g id="svg_130">
    <path class="st3" d="m83.3,230.6c-0.3,0 -0.5,-0.2 -0.5,-0.5l0,-7.9c0,-0.3 0.2,-0.5 0.5,-0.5c0.3,0 0.5,0.2 0.5,0.5l0,7.9c-0.1,0.3 -0.3,0.5 -0.5,0.5z" fill=" rgb(88, 94, 109)" id="svg_131"/>
   </g>
  </g>
  <g transform="matrix(0.9999999999999999,0,0,0.9999999999999999,-5.684341886080802e-14,0) " id="svg_132">
   <path d="m83.3,212.39999l-3,16.70002l3,0" class="st16" fill=" rgb(189, 243, 126)" id="svg_133"/>
  </g>
  <g transform="matrix(0.9999999999999999,0,0,0.9999999999999999,-5.684341886080802e-14,0) " id="svg_134">
   <path d="m83.3,212.39999l3,16.70002l-3,0" class="st16" fill=" rgb(189, 243, 126)" id="svg_135"/>
  </g>
  <g transform="matrix(0.9999999999999999,0,0,0.9999999999999999,-2.842170943040401e-14,0) " id="svg_136">
   <g id="svg_137">
    <path d="m109.4,207.2l0,8" class="st15" fill=" rgb(116, 140, 152)" id="svg_138"/>
   </g>
   <g id="svg_139">
    <path class="st3" d="m109.4,215.6c-0.3,0 -0.5,-0.2 -0.5,-0.5l0,-7.9c0,-0.3 0.2,-0.5 0.5,-0.5c0.3,0 0.5,0.2 0.5,0.5l0,7.9c0,0.3 -0.2,0.5 -0.5,0.5z" fill=" rgb(88, 94, 109)" id="svg_140"/>
   </g>
  </g>
  <g transform="matrix(0.9999999999999999,0,0,0.9999999999999999,-5.684341886080802e-14,0) " id="svg_141">
   <path d="m109.5,197.39999l-3.1,16.80001l3.1,0" class="st16" fill=" rgb(189, 243, 126)" id="svg_142"/>
  </g>
  <g transform="matrix(0.9999999999999999,0,0,0.9999999999999999,-5.684341886080802e-14,0) " id="svg_143">
   <path d="m109.4,197.39999l3.1,16.80001l-3.1,0" class="st16" fill=" rgb(189, 243, 126)" id="svg_144"/>
  </g>
  <path d="m152.6,94.4a9.4,9.4 0 0 1 -9.4,9.4a9.4,9.4 0 0 1 -9.4,-9.4a9.4,9.4 0 0 1 9.4,-9.4a9.4,9.4 0 0 1 9.4,9.4z" class="st18" fill=" rgb(255, 231, 161)" id="svg_145"/>
 </g>
</svg>