<?xml version="1.0"?>
<svg width="336" height="79.635009765625" xmlns="http://www.w3.org/2000/svg" xmlns:svg="http://www.w3.org/2000/svg">
 <g class="layer">
  <title>Layer 1</title>
  <rect fill="white" fill-opacity="0" height="79.63501" id="ee-background" transform="rotate(-179.928 167.786 25.8174)" width="336" x="-0.214473" y="-14.000109"/>
  <path class="st4" d="m199.255845,-23.906022c-1,0 -2,0.1 -2.9,0.2l0,46.2c1,0.1 1.9,0.2 2.9,0.2c12.9,0 23.3,-10.4 23.3,-23.3c0,-12.8 -10.4,-23.3 -23.3,-23.3z" fill="rgb(249, 245, 235)" id="svg_1" transform="rotate(90.2251 209.456 -0.606022)"/>
  <path class="st4" d="m303.419729,-14.056864c-8.4,0 -16,3.2 -21.8,8.3l0,39.8l50.4,0c2.5,-4.6 4,-9.9 4,-15.6c0,-17.9 -14.6,-32.5 -32.6,-32.5z" fill="rgb(249, 245, 235)" id="svg_2" transform="rotate(-179.928 308.82 9.99315)"/>
  <path class="st4" d="m255.825811,27.694545l28.3,0c5.6,-4.3 9.2,-11 9.2,-18.6c0,-12.9 -10.5,-23.3 -23.3,-23.3c-12.9,0 -23.3,10.4 -23.3,23.3c-0.1,7.6 3.5,14.3 9.1,18.6z" fill="rgb(249, 245, 235)" id="svg_3" transform="rotate(-179.928 270.025 6.74456)"/>
  <path class="st4" d="m257.834094,10.883554c0,-0.5 0.1,-1 0.1,-1.5c0,-12.9 -10.5,-23.3 -23.3,-23.3s-23.3,10.4 -23.3,23.3c0,0.5 0,1 0.1,1.5l46.4,0z" fill="rgb(249, 245, 235)" id="svg_4" transform="rotate(-179.928 234.634 -1.51643)"/>
  <path class="st4" d="m211.530219,17.081884c-12.5,-18.7 -33.9,-31.1 -58.1,-31.1c-24.2,0 -45.6,12.3 -58.1,31.1l116.2,0z" fill="rgb(249, 245, 235)" id="svg_5" transform="rotate(-179.928 153.43 1.5319)"/>
  <path class="st4" d="m142.038069,4.538942c-2.2,-10.6 -11.6,-18.6 -22.9,-18.6c-11.3,0 -20.7,8 -22.9,18.6l45.8,0z" fill="rgb(249, 245, 235)" id="svg_6" transform="rotate(-179.928 119.138 -4.76106)"/>
  <path class="st4" d="m108.727548,21.295724c1.2,-2.9 1.8,-6.1 1.8,-9.5c0,-14.3 -11.6,-25.9 -25.9,-25.9c-14.3,0 -25.9,11.6 -25.9,25.9c0,3.3 0.6,6.5 1.8,9.5l48.2,0z" fill="rgb(249, 245, 235)" id="svg_7" transform="rotate(-179.928 84.6276 3.59573)"/>
  <path class="st4" d="m73.125158,25.153524c2.4,-3.9 3.7,-8.5 3.7,-13.4c0,-14.3 -11.6,-25.9 -25.9,-25.9c-14.3,0 -25.9,11.6 -25.9,25.9c0,4.9 1.4,9.5 3.7,13.4l44.4,0z" fill="rgb(249, 245, 235)" id="svg_8" transform="rotate(-179.928 50.9252 5.50353)"/>
  <path class="st4" d="m18.418576,36.851406l14.5,0c4.9,-1.4 9.2,-4.3 12.5,-8.1l0,-33.5c-4.8,-5.6 -11.8,-9.1 -19.7,-9.1c-14.3,0 -25.9,11.6 -25.9,25.9c-0.1,11.7 7.8,21.7 18.6,24.8z" fill="rgb(249, 245, 235)" id="svg_9" transform="rotate(-179.928 22.6181 11.5014)"/>
  <path class="st4" d="m161.519665,-24.061257c-14.1,0.3 -25.4,11.7 -25.4,25.9c0,14.1 11.3,25.6 25.4,25.9l0,-51.8z" fill="rgb(249, 245, 235)" id="svg_10" transform="rotate(-90.0557 148.82 1.83875)"/>
  <path class="st4" d="m25.232663,13.205442l0,-27.4c-14.1,0.3 -25.4,11.7 -25.4,25.9c0,0.5 0,1 0,1.5l25.4,0z" fill="rgb(249, 245, 235)" id="svg_11" transform="rotate(-179.928 12.5327 -0.494553)"/>
  <path class="st4" d="m208.979273,37.897755c5.5,0 10.7,-1.7 14.9,-4.7c4.7,6.3 12.3,10.4 20.7,10.4c3.6,0 7,-0.7 10.1,-2c-0.1,0.7 -0.1,1.4 -0.1,2.1c0,0.5 0,1 0,1.5l51.7,0c0,-0.5 0,-1 0,-1.5c0,-14.3 -11.6,-25.9 -25.9,-25.9c-3.6,0 -7,0.7 -10.1,2c0.1,-0.7 0.1,-1.4 0.1,-2.1c0,-14.3 -11.6,-25.9 -25.9,-25.9c-5.5,0 -10.7,1.7 -14.9,4.7c-4.7,-6.3 -12.3,-10.4 -20.7,-10.4c-14.3,0 -25.9,11.6 -25.9,25.9s11.7,25.9 26,25.9z" fill="rgb(249, 245, 235)" id="svg_12" opacity="0.5" transform="rotate(164.668 244.629 15.6477)"/>
  <path class="st4" d="m94.369928,51.810628c1.9,-2.6 3.4,-5.5 4.3,-8.6c4.6,4.4 10.9,7.1 17.8,7.1c12.5,0 22.9,-8.8 25.4,-20.6c1.2,0.2 2.4,0.3 3.6,0.3c14.3,0 25.9,-11.6 25.9,-25.9s-11.6,-25.9 -25.9,-25.9c-12.5,0 -22.9,8.8 -25.4,20.6c-1.2,-0.2 -2.4,-0.3 -3.6,-0.3c-11.9,0 -21.9,8 -25,18.9c-4.6,-4.4 -10.9,-7.1 -17.8,-7.1c-14.3,0 -25.9,11.6 -25.9,25.9c0,5.9 2,11.3 5.2,15.6l41.4,0z" fill="rgb(249, 245, 235)" id="svg_13" opacity="0.5" transform="rotate(-152.62 109.57 15.0106)"/>
 </g>
</svg>