<?xml version="1.0" encoding="utf-8"?>
<svg id="master-artboard" viewBox="0 0 336 235.2" version="1.1" xmlns="http://www.w3.org/2000/svg" x="0px" y="0px" style="enable-background:new 0 0 336 235.2;" width="336px" height="235.1999969482422px">




<path d="M 187.10000610351562 115.5999984741211 L 191.60000610351562 113.69999694824219 L 199.10000610351562 113.5999984741211 L 203.5 111 L 207 113.30000305175781 L 208.5 111 L 211.6999969482422 111 L 216.89999389648438 106.30000305175781 L 223.10000610351562 106.30000305175781 L 231.89999389648438 103.5999984741211 L 240.3000030517578 107.0999984741211 L 242.6999969482422 110.9000015258789 L 249.39999389648438 109.5999984741211 L 252.60000610351562 115.5999984741211 Z" class="st4" style="fill: rgb(249, 245, 235);" transform="matrix(1, 0, 0, 1, -2.842170943040401e-14, -17)"/>
<path d="M 16.299999237060547 94.80000305175781 L 21.5 92.5999984741211 L 30.100000381469727 92.5 L 35.099998474121094 89.5 L 39.099998474121094 92.19999694824219 L 40.900001525878906 89.5 L 44.599998474121094 89.5 L 50.5 84.0999984741211 L 57.599998474121094 84.0999984741211 L 67.80000305175781 81 L 77.4000015258789 85 L 80.0999984741211 89.30000305175781 L 87.9000015258789 87.9000015258789 L 91.5 94.80000305175781 Z" class="st4" style="fill: rgb(249, 245, 235);" transform="matrix(1, 0, 0, 1, -2.842170943040401e-14, -17)"/>
<path d="M 35.400001525878906 34.79999923706055 L 40.70000076293945 32.599998474121094 L 49.29999923706055 32.5 L 54.29999923706055 29.5 L 58.29999923706055 32.099998474121094 L 60.099998474121094 29.5 L 63.70000076293945 29.5 L 69.69999694824219 24.100000381469727 L 76.80000305175781 24.100000381469727 L 86.9000015258789 21 L 96.5999984741211 25 L 99.30000305175781 29.299999237060547 L 107.0999984741211 27.899999618530273 L 110.69999694824219 34.79999923706055 Z" class="st4" style="fill: rgb(249, 245, 235); opacity: 0.5;" transform="matrix(1, 0, 0, 1, -2.842170943040401e-14, -17)"/>
















































<path d="M 41.099998474121094 45.20000076293945 L 49 41.900001525878906 L 62 41.70000076293945 L 69.5 37.20000076293945 L 75.5 41.20000076293945 L 78.30000305175781 37.20000076293945 L 83.80000305175781 37.20000076293945 L 92.80000305175781 29 L 103.5 29 L 118.80000305175781 24.399999618530273 L 133.3000030517578 30.399999618530273 L 137.39999389648438 37 L 149.1999969482422 34.79999923706055 L 154.60000610351562 45.20000076293945 Z" class="st4" style="fill: rgb(249, 245, 235);" transform="matrix(1, 0, 0, 1, -2.842170943040401e-14, -17)"/>
</svg>