<?xml version="1.0"?>
<svg width="573.75" height="50" xmlns="http://www.w3.org/2000/svg" xmlns:svg="http://www.w3.org/2000/svg">
 <g class="layer">
  <title>Layer 1</title>
  <g id="svg_1" transform="rotate(-179.925 286.875 22.376)">
   <g id="svg_2">
    <path d="m541.496,6.396931c24.279,12.897975 -2.229,26.939242 -2.602,27.155365c0.067,-0.06846 0.66,-1.077448 0.66,-1.077448c7.784,-8.664493 -11.188,-13.551304 -11.188,-13.551304c12.805,7.496132 -10.824,11.770387 -24.681,13.551304c-5.192,0.666552 -9.056,1.235581 -9.056,1.235581c-0.401,0 -0.755,-0.899618 -1.052,-1.235581c-9.313,-10.579712 34.779,-24.055944 34.779,-24.055944c-28.21,3.453703 -45.298,14.693218 -52.814,20.877458c8.961,-10.421717 -5.852,-15.221473 -5.852,-15.221473c5.852,8.715872 -8.846,15.869568 -15.014,18.39996c-1.549,0.637488 -2.582,1.235581 -2.582,1.235581c-0.717,0 -1.357,-0.873309 -1.97,-1.235581c-10.595,-6.300084 -5.364,-21.835205 -5.364,-21.835205c-10.519,3.623681 -16.85,11.069674 -20.234,16.474272c0.02,-9.162444 -20.837,-14.656439 -20.837,-14.656439c22.004,11.717768 -7.334,19.394348 -7.334,19.394348c5.861,-10.50464 -14.669,-13.131041 -14.669,-13.131041c15.166,4.347949 -19.067,12.930897 -19.067,12.930897c-13.196,-11.313346 19.067,-27.275204 19.067,-27.275204c-19.536,3.792145 -31.002,13.283939 -37.007,20.184733c-0.641,-8.766011 -27.215,-12.103732 -27.215,-12.103732c26.708,8.889707 -0.307,19.798769 -0.307,19.798769c2.937,-10.504778 -16.141,-15.557435 -16.141,-15.557435c2.399,4.637905 -24.739,12.932274 -34.607,15.774798c-2.171,0.623025 -3.529,1.235581 -3.529,1.235581c-0.564,0 -1.042,-0.886533 -1.482,-1.235581c-9.859,-7.80303 10.28,-24.461606 10.28,-24.461606c-23.084,2.473641 -37.198,20.066134 -40.383,24.462983c-0.459,0.633631 -0.688,1.235581 -0.688,1.235581c-0.134,0 -0.287,-0.900996 -0.43,-1.235581c-3.041,-6.82958 -2.706,-14.407533 -2.706,-14.407533c-9.706,1.467407 -17.356,15.641736 -17.404,15.641736l0.258,-1.235581c6.311,-17.649107 -16.39,-23.45 -16.39,-23.45c11.111,8.671105 -8.951,20.0609 -15.568,23.45c-1.243,0.638865 -2.027,1.235581 -2.027,1.235581c-1.454,0 -2.697,-0.868075 -3.787,-1.235581c-15.405,-5.2028 3.787,-17.188071 3.787,-17.188071c-17.71,3.134959 -23.763,8.669727 -25.733,12.812297c1.626,-21.229261 -10.939,-28.166833 -10.939,-28.166833c9.037,7.655504 -10.375,27.845472 -15.118,32.542607c-0.277,0.276732 -0.249,0.247667 0,0l-0.382,0c3.509,-7.147084 -13.837,-20.016133 -13.837,-20.016133c0,5.609977 -9.352,16.655959 -12.307,20.016133c-0.555,0.632254 -0.889,1.235581 -0.889,1.235581c-1.501,-0.412273 -2.228,-0.895624 -3.223,-1.235581c-22.348,-9.145364 3.223,-24.461606 3.223,-24.461606c-34.06,6.256557 -37.742,20.579651 -38.096,24.461468c-0.029,0.299046 -0.038,0.38073 0,0c0,0 1.74,1.485865 -3.031,0c-16.361,-4.869731 3.93,-20.016133 3.93,-20.016133c-20.101,2.942666 -28.276,16.263383 -30.083,20.016133c-0.296,0.625642 -0.669,1.235581 -0.669,1.235581c-0.498,0 -1.042,-0.902236 -1.454,-1.235581c-15.96,-12.891363 31.336,-27.169828 31.336,-27.169828c-46.923,4.041189 -59.068,28.404031 -59.068,28.404031l0,11.113339l573.75,0l0,-12.347543l0,0c0.086,-22.613607 -32.254,-26.076539 -32.254,-26.076539z" fill="#5bcc6f" id="svg_3"/>
   </g>
  </g>
  <g id="svg_4"/>
  <g id="svg_5"/>
  <g id="svg_6"/>
  <g id="svg_7"/>
  <g id="svg_8"/>
  <g id="svg_9"/>
  <g id="svg_10"/>
  <g id="svg_11"/>
  <g id="svg_12"/>
  <g id="svg_13"/>
  <g id="svg_14"/>
  <g id="svg_15"/>
  <g id="svg_16"/>
  <g id="svg_17"/>
  <g id="svg_18"/>
 </g>
</svg>