<?xml version="1.0" encoding="utf-8"?>
<svg id="master-artboard" viewBox="0 0 144.91429138183594 37.71428680419922" version="1.1" xmlns="http://www.w3.org/2000/svg" x="0px" y="0px" style="enable-background:new 0 0 336 235.2;" width="144.91429138183594px" height="37.71428680419922px"><rect id="ee-background" x="0" y="0" width="144.91429138183594" height="37.71428680419922" style="fill: white; fill-opacity: 0; pointer-events: none;"/>
























































<path d="M 35.400001525878906 34.79999923706055 L 40.70000076293945 32.599998474121094 L 49.29999923706055 32.5 L 54.29999923706055 29.5 L 58.29999923706055 32.099998474121094 L 60.099998474121094 29.5 L 63.70000076293945 29.5 L 69.69999694824219 24.100000381469727 L 76.80000305175781 24.100000381469727 L 86.9000015258789 21 L 96.5999984741211 25 L 99.30000305175781 29.299999237060547 L 107.0999984741211 27.899999618530273 L 110.69999694824219 34.79999923706055 Z" class="st4" style="fill: rgb(249, 245, 235); opacity: 0.5;" transform="matrix(1, 0, 0, 1, -14.557142786681652, -12.800000250339508)"/><path d="M 41.099998474121094 45.20000076293945 L 49 41.900001525878906 L 62 41.70000076293945 L 69.5 37.20000076293945 L 75.5 41.20000076293945 L 78.30000305175781 37.20000076293945 L 83.80000305175781 37.20000076293945 L 92.80000305175781 29 L 103.5 29 L 118.80000305175781 24.399999618530273 L 133.3000030517578 30.399999618530273 L 137.39999389648438 37 L 149.1999969482422 34.79999923706055 L 154.60000610351562 45.20000076293945 Z" class="st4" style="fill: rgb(249, 245, 235);" transform="matrix(1, 0, 0, 1, -14.557142786681652, -12.800000250339508)"/></svg>