<?xml version="1.0" encoding="utf-8"?>
<svg id="master-artboard" viewBox="0 0 336 235.2" version="1.1" xmlns="http://www.w3.org/2000/svg" x="0px" y="0px" style="enable-background:new 0 0 336 235.2;" width="336px" height="235.1999969482422px">

<g transform="matrix(0.9999999999999999, 0, 0, 0.9999999999999999, -2.842170943040401e-14, 0)">
		<path d="M 0 0 H 336 V 235.199997 H 0 V 0 Z" class="st0" style="fill: rgb(69, 166, 168);"/>
	</g>
<g transform="matrix(0.9999999999999999, 0, 0, 0.9999999999999999, -2.842170943040401e-14, 0)">
		<path class="st1" d="M209.4,235c38.7-16.7,65.9-55.6,65.9-101c0-60.6-48.4-109.7-108.1-109.7C107.5,24.4,59.1,73.5,59.1,134&#10;&#9;&#9;&#9;c0,45.4,27.2,84.3,65.9,101H209.4z" style="fill: rgb(62, 147, 151);"/>
	</g>
<path class="st3" d="M7.5,197l25.6-34.7l9,4.9L57.7,142l12.4,2.4c0,0,14.3-30.7,14.7-28.9c0.4,1.8,12.7,23.2,12.7,23.2l18.7-33.6&#10;&#9;&#9;l16.4,29.5L146.8,89l11.7,32L184,85l16.2,9.5l12.5,44.7l13.8-13.7l4.4,30.4l20-16.7l12,23.1l15.9,1.9l5.7,19" style="fill: rgb(88, 94, 109); opacity: 0.5;" transform="matrix(0.9999999999999999, 0, 0, 0.9999999999999999, -2.842170943040401e-14, 0)"/>
<path d="M 187.10000610351562 115.5999984741211 L 191.60000610351562 113.69999694824219 L 199.10000610351562 113.5999984741211 L 203.5 111 L 207 113.30000305175781 L 208.5 111 L 211.6999969482422 111 L 216.89999389648438 106.30000305175781 L 223.10000610351562 106.30000305175781 L 231.89999389648438 103.5999984741211 L 240.3000030517578 107.0999984741211 L 242.6999969482422 110.9000015258789 L 249.39999389648438 109.5999984741211 L 252.60000610351562 115.5999984741211 Z" class="st4" style="fill: rgb(249, 245, 235);" transform="matrix(0.9999999999999999, 0, 0, 0.9999999999999999, -2.842170943040401e-14, 0)"/>
<path d="M 16.299999237060547 94.80000305175781 L 21.5 92.5999984741211 L 30.100000381469727 92.5 L 35.099998474121094 89.5 L 39.099998474121094 92.19999694824219 L 40.900001525878906 89.5 L 44.599998474121094 89.5 L 50.5 84.0999984741211 L 57.599998474121094 84.0999984741211 L 67.80000305175781 81 L 77.4000015258789 85 L 80.0999984741211 89.30000305175781 L 87.9000015258789 87.9000015258789 L 91.5 94.80000305175781 Z" class="st4" style="fill: rgb(249, 245, 235);" transform="matrix(0.9999999999999999, 0, 0, 0.9999999999999999, -2.842170943040401e-14, 0)"/>
<path d="M 35.400001525878906 34.79999923706055 L 40.70000076293945 32.599998474121094 L 49.29999923706055 32.5 L 54.29999923706055 29.5 L 58.29999923706055 32.099998474121094 L 60.099998474121094 29.5 L 63.70000076293945 29.5 L 69.69999694824219 24.100000381469727 L 76.80000305175781 24.100000381469727 L 86.9000015258789 21 L 96.5999984741211 25 L 99.30000305175781 29.299999237060547 L 107.0999984741211 27.899999618530273 L 110.69999694824219 34.79999923706055 Z" class="st4" style="fill: rgb(249, 245, 235); opacity: 0.5;" transform="matrix(0.9999999999999999, 0, 0, 0.9999999999999999, -2.842170943040401e-14, 0)"/>
<path d="M 193.600006 51.900002 L 200.199997 51.099998 L 196.899994 56.700001 L 199.899994 62.700001 L 186.899994 63.799999" class="st5" style="fill: rgb(208, 60, 0);" transform="matrix(0.9999999999999999, 0, 0, 0.9999999999999999, -2.842170943040401e-14, 0)"/>
<path d="M 176.600006 51.900002 L 194 49.599998 L 194.199997 60.900002 L 176.199997 63" class="st6" style="fill: rgb(244, 76, 0);" transform="matrix(0.9999999999999999, 0, 0, 0.9999999999999999, -2.842170943040401e-14, 0)"/>
<path d="M 186.899994 63.799999 L 188.100006 61.599998 L 194.199997 60.900002" class="st7" style="fill: rgb(173, 0, 0);" transform="matrix(0.9999999999999999, 0, 0, 0.9999999999999999, -2.842170943040401e-14, 0)"/>
<g transform="matrix(0.9999999999999999, 0, 0, 0.9999999999999999, -2.842170943040401e-14, 0)">
		<path d="M 175.800003 50.200001 H 176.600003 V 73.700001 H 175.800003 V 50.200001 Z" class="st3" style="fill: rgb(88, 94, 109);"/>
	</g>
<path class="st8" d="M57.7,197H14.1c14.1,0,19.8-5.9,19.8-5.9c26.1-28,36.2-26.9,36.2-26.9" style="fill: rgb(176, 220, 73);" transform="matrix(0.9999999999999999, 0, 0, 0.9999999999999999, -2.842170943040401e-14, 0)"/>
<g transform="matrix(0.9999999999999999, 0, 0, 0.9999999999999999, -2.842170943040401e-14, 0)">
		<g>
			<path d="M 157.5 108.699997 L 176.199997 71 L 194.899994 106.699997 L 191.800003 127.300003 L 146.800003 144.399994" class="st4" style="fill: rgb(249, 245, 235);"/>
		</g>
	</g><g transform="matrix(0.9999999999999999, 0, 0, 0.9999999999999999, -5.684341886080802e-14, 0)">
			<path d="M 196.600006 147.699997 L 214.5 135.399994 L 218 122.5 L 230.899994 145.600006 L 230.899994 173.199997 L 196.300003 173.699997" class="st4" style="fill: rgb(249, 245, 235);"/>
		</g><g transform="matrix(0.9999999999999999, 0, 0, 0.9999999999999999, -5.684341886080802e-14, 0)">
			<path d="M 263.79998779296875 197 L 252.5 173.6999969482422 L 230.89999389648438 145.60000610351562 L 227.6999969482422 155.89999389648438 L 222.89999389648438 145.60000610351562 L 218 164.10000610351562 L 213.60000610351562 150.39999389648438 L 206.5 164.5 L 206.5 145.60000610351562 L 163 196.89999389648438 L 166.5 197 Z" class="st9" style="fill: rgb(107, 116, 133);"/>
		</g><g transform="matrix(0.9999999999999999, 0, 0, 0.9999999999999999, -5.684341886080802e-14, 0)">
			<path d="M 178.5 197 L 206.5 145.60000610351562 L 194.6999969482422 107.4000015258789 L 192.10000610351562 122.5 L 186 111.5999984741211 L 178.39999389648438 131.60000610351562 L 171.10000610351562 99.9000015258789 L 162.6999969482422 118.19999694824219 L 157.10000610351562 110.0999984741211 L 143 126.0999984741211 L 109.4000015258789 183.1999969482422 L 109.4000015258789 197 Z" class="st9" style="fill: rgb(107, 116, 133);"/>
		</g><g transform="matrix(0.9999999999999999, 0, 0, 0.9999999999999999, -5.684341886080802e-14, 0)">
			<path d="M 172.39999389648438 182.89999389648438 L 177.10000610351562 197 L 178.5 197 L 180.5 193.3000030517578 L 206.5 145.60000610351562 L 194.89999389648438 106.69999694824219 L 192.10000610351562 122.5 L 186 111.5999984741211 L 178.39999389648438 131.60000610351562 L 175.1999969482422 119.5999984741211 L 168.10000610351562 133.89999389648438 L 172.89999389648438 144 L 163.8000030517578 153.8000030517578 Z" class="st3" style="fill: rgb(88, 94, 109);"/>
		</g><g transform="matrix(0.9999999999999999, 0, 0, 0.9999999999999999, -5.684341886080802e-14, 0)">
			<path d="M 236.1999969482422 185.8000030517578 L 234 197 L 263.79998779296875 197 L 252.5 173.6999969482422 L 230.89999389648438 145.60000610351562 L 227.6999969482422 155.89999389648438 L 222.89999389648438 145.60000610351562 L 218 164.10000610351562 L 227.8000030517578 170.89999389648438 Z" class="st3" style="fill: rgb(88, 94, 109);"/>
		</g><g transform="matrix(0.9999999999999999, 0, 0, 0.9999999999999999, -5.684341886080802e-14, 0)">
			<path d="M 176.199997 71 L 179.5 94.199997 L 186 111.599998 L 192.100006 122.5 L 194.899994 106.699997" class="st10" style="fill: rgb(237, 233, 223);"/>
		</g><g transform="matrix(0.9999999999999999, 0, 0, 0.9999999999999999, -5.684341886080802e-14, 0)">
			<path d="M 218 122.5 L 219.199997 136 L 222.899994 145.600006 L 227.699997 155.899994 L 230.899994 145.600006" class="st10" style="fill: rgb(237, 233, 223);"/>
		</g>
<g transform="matrix(0.9999999999999999, 0, 0, 0.9999999999999999, -2.842170943040401e-14, 0)">
		<g>
			<path d="M 99.800003 120.099998 L 116.199997 87 L 132.600006 118.400002 L 129.800003 136.399994 L 90.400002 151.399994" class="st4" style="fill: rgb(249, 245, 235);"/>
		</g>
	</g><g transform="matrix(0.9999999999999999, 0, 0, 0.9999999999999999, -5.684341886080802e-14, 0)">
			<path d="M 134.100006 154.300003 L 149.699997 143.399994 L 152.899994 132.199997 L 164.100006 152.399994 L 164.100006 176.600006 L 133.800003 177.100006" class="st4" style="fill: rgb(249, 245, 235);"/>
		</g><g transform="matrix(0.9999999999999999, 0, 0, 0.9999999999999999, -5.684341886080802e-14, 0)">
			<path d="M 104.9000015258789 197 L 192.8000030517578 197 L 183.10000610351562 177.10000610351562 L 164.10000610351562 152.39999389648438 L 161.39999389648438 161.39999389648438 L 157.10000610351562 152.39999389648438 L 152.89999389648438 168.60000610351562 L 149 156.60000610351562 L 142.8000030517578 169 L 142.8000030517578 152.39999389648438 Z" class="st9" style="fill: rgb(107, 116, 133);"/>
		</g><g transform="matrix(0.9999999999999999, 0, 0, 0.9999999999999999, -5.684341886080802e-14, 0)">
			<path d="M 118.4000015258789 197 L 142.8000030517578 152.39999389648438 L 132.39999389648438 118.9000015258789 L 130.10000610351562 132.1999969482422 L 124.80000305175781 122.5999984741211 L 118.0999984741211 140.1999969482422 L 111.69999694824219 112.4000015258789 L 104.30000305175781 128.39999389648438 L 99.4000015258789 121.30000305175781 L 87.0999984741211 135.3000030517578 L 57.70000076293945 185.3000030517578 L 57.70000076293945 197 Z" class="st9" style="fill: rgb(107, 116, 133);"/>
		</g><g transform="matrix(0.9999999999999999, 0, 0, 0.9999999999999999, -5.684341886080802e-14, 0)">
			<path d="M 112.80000305175781 185.1999969482422 L 116.80000305175781 197 L 118.4000015258789 197 L 119.9000015258789 194.3000030517578 L 142.8000030517578 152.39999389648438 L 132.60000610351562 118.4000015258789 L 130.10000610351562 132.1999969482422 L 124.80000305175781 122.5999984741211 L 118.0999984741211 140.1999969482422 L 115.30000305175781 129.60000610351562 L 109.0999984741211 142.1999969482422 L 113.30000305175781 151 L 105.30000305175781 159.60000610351562 Z" class="st3" style="fill: rgb(88, 94, 109);"/>
		</g><g transform="matrix(0.9999999999999999, 0, 0, 0.9999999999999999, -5.684341886080802e-14, 0)">
			<path d="M 168.8000030517578 187.6999969482422 L 167 197 L 192.8000030517578 197 L 183.10000610351562 177.10000610351562 L 164.10000610351562 152.39999389648438 L 161.39999389648438 161.39999389648438 L 157.10000610351562 152.39999389648438 L 152.89999389648438 168.60000610351562 L 161.39999389648438 174.60000610351562 Z" class="st3" style="fill: rgb(88, 94, 109);"/>
		</g><g transform="matrix(0.9999999999999999, 0, 0, 0.9999999999999999, -5.684341886080802e-14, 0)">
			<path d="M 116.199997 87 L 119.099998 107.400002 L 124.800003 122.599998 L 130.100006 132.199997 L 132.600006 118.400002" class="st10" style="fill: rgb(237, 233, 223);"/>
		</g><g transform="matrix(0.9999999999999999, 0, 0, 0.9999999999999999, -5.684341886080802e-14, 0)">
			<path d="M 152.899994 132.199997 L 153.899994 144 L 157.100006 152.399994 L 161.399994 161.399994 L 164.100006 152.399994" class="st10" style="fill: rgb(237, 233, 223);"/>
		</g>
<path class="st11" d="M194.8,197l127.8,2.7c-9.6-1.3-18.4-6-25.2-9.3c-6.9-3.3-9.8-8-15.4-10c-5.6-2-25.7-3.3-25.7-3.3l-18.1-24.7&#10;&#9;&#9;L223.5,169l-15,4.8l-10.2-9.5l-13.2,17.1" style="fill: rgb(86, 205, 107);" transform="matrix(0.9999999999999999, 0, 0, 0.9999999999999999, -2.842170943040401e-14, 0)"/>
<path class="st11" d="M84.8,139.2c0,0,14.3,10.5,28.5,11.8c14.2,1.3,15.5,10.4,15.5,10.4l7.2,3.3l-7.8,14.3c0,0-51.2-31.9-70.6,6.3&#10;&#9;&#9;" style="fill: rgb(86, 205, 107);" transform="matrix(0.9999999999999999, 0, 0, 0.9999999999999999, -2.842170943040401e-14, 0)"/>
<path class="st12" d="M243.2,170c-1.1-0.8-2.1-1.7-3.1-2.6c-2.8-2.5-5.6-5.1-8.4-7.7l-8.2,9.3l9.9,11.7l-2.5,13.6l10.1,3.6&#10;&#9;&#9;l19.2,0.4c-5.4-5.9-10.2-12.5-13.5-19.7C245.4,175.8,244.3,172.9,243.2,170z" style="fill: rgb(65, 171, 128);" transform="matrix(0.9999999999999999, 0, 0, 0.9999999999999999, -2.842170943040401e-14, 0)"/>
<path class="st13" d="M256.2,177.1l18.8,9.4v5l15.5,8.2l10.8-0.4c0,0-26.4-16.2-25.6-20.2" style="fill: rgb(78, 184, 90);" transform="matrix(0.9999999999999999, 0, 0, 0.9999999999999999, -2.842170943040401e-14, 0)"/>
<path d="M 208.5 173.699997 L 196.300003 179 L 198.5 188.399994 L 188.100006 186 L 185.199997 181.300003 L 198.300003 164.199997" class="st14" style="fill: rgb(175, 215, 68);" transform="matrix(0.9999999999999999, 0, 0, 0.9999999999999999, -2.842170943040401e-14, 0)"/>
<path class="st13" d="M118.4,197l9.8-18c0,0-37.6-26.8-63-4.5c0,0-11.4,10.8-13.4,22.5" style="fill: rgb(78, 184, 90);" transform="matrix(0.9999999999999999, 0, 0, 0.9999999999999999, -2.842170943040401e-14, 0)"/>
<path class="st12" d="M113.3,151l5.6,11.2l-4,11.5l7,16.3l14.1-25.3C136,164.7,128.5,151.8,113.3,151z" style="fill: rgb(65, 171, 128);" transform="matrix(0.9999999999999999, 0, 0, 0.9999999999999999, -2.842170943040401e-14, 0)"/>
<path d="M 98.300003 146.800003 L 86.199997 151.899994 L 77.199997 162.300003 L 74.5 170.5 L 62.299999 177.600006 L 85.099998 138.600006" class="st8" style="fill: rgb(176, 220, 73);" transform="matrix(0.9999999999999999, 0, 0, 0.9999999999999999, -2.842170943040401e-14, 0)"/>
<path class="st11" d="M70.1,164.2c0,0-3.3,9.1-7.8,13.4c-5.4,5.2-10.4,17.9-10.4,19.4H41.6C41.6,197,56.8,168.8,70.1,164.2z" style="fill: rgb(86, 205, 107);" transform="matrix(0.9999999999999999, 0, 0, 0.9999999999999999, -2.842170943040401e-14, 0)"/>
<g transform="matrix(0.9999999999999999, 0, 0, 0.9999999999999999, -2.842170943040401e-14, 0)">
		<g>
			<path d="M 256.100006 176.300003 L 256.100006 184.199997" class="st15" style="fill: rgb(116, 140, 152);"/>
		</g>
		<g>
			<path class="st3" d="M256.1,184.7c-0.3,0-0.5-0.2-0.5-0.5v-7.9c0-0.3,0.2-0.5,0.5-0.5c0.3,0,0.5,0.2,0.5,0.5v7.9&#10;&#9;&#9;&#9;&#9;C256.6,184.5,256.4,184.7,256.1,184.7z" style="fill: rgb(88, 94, 109);"/>
		</g>
	</g><g transform="matrix(0.9999999999999999, 0, 0, 0.9999999999999999, -5.684341886080802e-14, 0)">
			<path d="M 256.200012 166.5 L 253.199997 183.199997 L 256.200012 183.199997" class="st16" style="fill: rgb(189, 243, 126);"/>
		</g><g transform="matrix(0.9999999999999999, 0, 0, 0.9999999999999999, -5.684341886080802e-14, 0)">
			<path d="M 256.100006 166.5 L 259.200012 183.199997 L 256.100006 183.199997" class="st16" style="fill: rgb(189, 243, 126);"/>
		</g>
<g transform="matrix(0.9999999999999999, 0, 0, 0.9999999999999999, -2.842170943040401e-14, 0)">
		<g>
			<path d="M 243.899994 172 L 243.899994 179.899994" class="st15" style="fill: rgb(116, 140, 152);"/>
		</g>
		<g>
			<path class="st3" d="M243.9,180.4c-0.3,0-0.5-0.2-0.5-0.5V172c0-0.3,0.2-0.5,0.5-0.5c0.3,0,0.5,0.2,0.5,0.5v7.9&#10;&#9;&#9;&#9;&#9;C244.3,180.2,244.1,180.4,243.9,180.4z" style="fill: rgb(88, 94, 109);"/>
		</g>
	</g><g transform="matrix(0.9999999999999999, 0, 0, 0.9999999999999999, -5.684341886080802e-14, 0)">
			<path d="M 244 162.199997 L 240.899994 178.899994 L 244 178.899994" class="st16" style="fill: rgb(189, 243, 126);"/>
		</g><g transform="matrix(0.9999999999999999, 0, 0, 0.9999999999999999, -5.684341886080802e-14, 0)">
			<path d="M 243.899994 162.199997 L 246.899994 178.899994 L 243.899994 178.899994" class="st16" style="fill: rgb(189, 243, 126);"/>
		</g>
<g transform="matrix(0.9999999999999999, 0, 0, 0.9999999999999999, -2.842170943040401e-14, 0)">
		<g>
			<path d="M 268.299988 183.899994 L 268.299988 191.899994" class="st15" style="fill: rgb(116, 140, 152);"/>
		</g>
		<g>
			<path class="st3" d="M268.3,192.3c-0.3,0-0.5-0.2-0.5-0.5v-7.9c0-0.3,0.2-0.5,0.5-0.5c0.3,0,0.5,0.2,0.5,0.5v7.9&#10;&#9;&#9;&#9;&#9;C268.8,192.1,268.6,192.3,268.3,192.3z" style="fill: rgb(88, 94, 109);"/>
		</g>
	</g><g transform="matrix(0.9999999999999999, 0, 0, 0.9999999999999999, -5.684341886080802e-14, 0)">
			<path d="M 268.399994 174.100006 L 265.399994 190.899994 L 268.399994 190.899994" class="st16" style="fill: rgb(189, 243, 126);"/>
		</g><g transform="matrix(0.9999999999999999, 0, 0, 0.9999999999999999, -5.684341886080802e-14, 0)">
			<path d="M 268.399994 174.100006 L 271.399994 190.899994 L 268.399994 190.899994" class="st16" style="fill: rgb(189, 243, 126);"/>
		</g>
<g transform="matrix(0.9999999999999999, 0, 0, 0.9999999999999999, -2.842170943040401e-14, 0)">
		<g>
			<path d="M 237.899994 186.899994 L 237.899994 194.800003" class="st15" style="fill: rgb(116, 140, 152);"/>
		</g>
		<g>
			<path class="st3" d="M237.9,195.3c-0.3,0-0.5-0.2-0.5-0.5v-7.9c0-0.3,0.2-0.5,0.5-0.5c0.3,0,0.5,0.2,0.5,0.5v7.9&#10;&#9;&#9;&#9;&#9;C238.3,195.1,238.1,195.3,237.9,195.3z" style="fill: rgb(88, 94, 109);"/>
		</g>
	</g><g transform="matrix(0.9999999999999999, 0, 0, 0.9999999999999999, -5.684341886080802e-14, 0)">
			<path d="M 237.899994 177.100006 L 234.899994 193.800003 L 237.899994 193.800003" class="st16" style="fill: rgb(189, 243, 126);"/>
		</g><g transform="matrix(0.9999999999999999, 0, 0, 0.9999999999999999, -5.684341886080802e-14, 0)">
			<path d="M 237.899994 177.100006 L 240.899994 193.800003 L 237.899994 193.800003" class="st16" style="fill: rgb(189, 243, 126);"/>
		</g>
<g transform="matrix(0.9999999999999999, 0, 0, 0.9999999999999999, -2.842170943040401e-14, 0)">
		<g>
			<path d="M 223.399994 180.600006 L 223.399994 188.5" class="st15" style="fill: rgb(116, 140, 152);"/>
		</g>
		<g>
			<path class="st3" d="M223.4,189c-0.3,0-0.5-0.2-0.5-0.5v-7.9c0-0.3,0.2-0.5,0.5-0.5c0.3,0,0.5,0.2,0.5,0.5v7.9&#10;&#9;&#9;&#9;&#9;C223.9,188.8,223.7,189,223.4,189z" style="fill: rgb(88, 94, 109);"/>
		</g>
	</g><g transform="matrix(0.9999999999999999, 0, 0, 0.9999999999999999, -5.684341886080802e-14, 0)">
			<path d="M 223.5 170.800003 L 220.5 187.5 L 223.5 187.5" class="st16" style="fill: rgb(189, 243, 126);"/>
		</g><g transform="matrix(0.9999999999999999, 0, 0, 0.9999999999999999, -5.684341886080802e-14, 0)">
			<path d="M 223.399994 170.800003 L 226.5 187.5 L 223.399994 187.5" class="st16" style="fill: rgb(189, 243, 126);"/>
		</g>
<g transform="matrix(0.9999999999999999, 0, 0, 0.9999999999999999, -2.842170943040401e-14, 0)">
		<g>
			<path d="M 100.5 179.899994 L 100.5 187.800003" class="st15" style="fill: rgb(116, 140, 152);"/>
		</g>
		<g>
			<path class="st3" d="M100.5,188.3c-0.3,0-0.5-0.2-0.5-0.5v-7.9c0-0.3,0.2-0.5,0.5-0.5c0.3,0,0.5,0.2,0.5,0.5v7.9&#10;&#9;&#9;&#9;&#9;C100.9,188.1,100.7,188.3,100.5,188.3z" style="fill: rgb(88, 94, 109);"/>
		</g>
	</g><g transform="matrix(0.9999999999999999, 0, 0, 0.9999999999999999, -5.684341886080802e-14, 0)">
			<path d="M 100.5 170.100006 L 97.5 186.800003 L 100.5 186.800003" class="st16" style="fill: rgb(189, 243, 126);"/>
		</g><g transform="matrix(0.9999999999999999, 0, 0, 0.9999999999999999, -5.684341886080802e-14, 0)">
			<path d="M 100.5 170.100006 L 103.5 186.800003 L 100.5 186.800003" class="st16" style="fill: rgb(189, 243, 126);"/>
		</g>
<g transform="matrix(0.9999999999999999, 0, 0, 0.9999999999999999, -2.842170943040401e-14, 0)">
		<g>
			<path d="M 90 167.199997 L 90 175.100006" class="st15" style="fill: rgb(116, 140, 152);"/>
		</g>
		<g>
			<path class="st3" d="M90,175.6c-0.3,0-0.5-0.2-0.5-0.5v-7.9c0-0.3,0.2-0.5,0.5-0.5c0.3,0,0.5,0.2,0.5,0.5v7.9&#10;&#9;&#9;&#9;&#9;C90.5,175.4,90.3,175.6,90,175.6z" style="fill: rgb(88, 94, 109);"/>
		</g>
	</g><g transform="matrix(0.9999999999999999, 0, 0, 0.9999999999999999, -5.684341886080802e-14, 0)">
			<path d="M 90.099998 157.399994 L 87 174.100006 L 90.099998 174.100006" class="st16" style="fill: rgb(189, 243, 126);"/>
		</g><g transform="matrix(0.9999999999999999, 0, 0, 0.9999999999999999, -5.684341886080802e-14, 0)">
			<path d="M 90 157.399994 L 93.099998 174.100006 L 90 174.100006" class="st16" style="fill: rgb(189, 243, 126);"/>
		</g>
<g transform="matrix(0.9999999999999999, 0, 0, 0.9999999999999999, -2.842170943040401e-14, 0)">
		<g>
			<path d="M 67 178.300003 L 67 186.300003" class="st15" style="fill: rgb(116, 140, 152);"/>
		</g>
		<g>
			<path class="st3" d="M67,186.7c-0.3,0-0.5-0.2-0.5-0.5v-7.9c0-0.3,0.2-0.5,0.5-0.5c0.3,0,0.5,0.2,0.5,0.5v7.9&#10;&#9;&#9;&#9;&#9;C67.5,186.5,67.3,186.7,67,186.7z" style="fill: rgb(88, 94, 109);"/>
		</g>
	</g><g transform="matrix(0.9999999999999999, 0, 0, 0.9999999999999999, -5.684341886080802e-14, 0)">
			<path d="M 67.099998 168.5 L 64.099998 185.300003 L 67.099998 185.300003" class="st16" style="fill: rgb(189, 243, 126);"/>
		</g><g transform="matrix(0.9999999999999999, 0, 0, 0.9999999999999999, -5.684341886080802e-14, 0)">
			<path d="M 67.099998 168.5 L 70.099998 185.300003 L 67.099998 185.300003" class="st16" style="fill: rgb(189, 243, 126);"/>
		</g>
<g transform="matrix(0.9999999999999999, 0, 0, 0.9999999999999999, -2.842170943040401e-14, 0)">
		<g>
			<path d="M 83.300003 184.199997 L 83.300003 192.100006" class="st15" style="fill: rgb(116, 140, 152);"/>
		</g>
		<g>
			<path class="st3" d="M83.3,192.6c-0.3,0-0.5-0.2-0.5-0.5v-7.9c0-0.3,0.2-0.5,0.5-0.5c0.3,0,0.5,0.2,0.5,0.5v7.9&#10;&#9;&#9;&#9;&#9;C83.7,192.4,83.5,192.6,83.3,192.6z" style="fill: rgb(88, 94, 109);"/>
		</g>
	</g><g transform="matrix(0.9999999999999999, 0, 0, 0.9999999999999999, -5.684341886080802e-14, 0)">
			<path d="M 83.300003 174.399994 L 80.300003 191.100006 L 83.300003 191.100006" class="st16" style="fill: rgb(189, 243, 126);"/>
		</g><g transform="matrix(0.9999999999999999, 0, 0, 0.9999999999999999, -5.684341886080802e-14, 0)">
			<path d="M 83.300003 174.399994 L 86.300003 191.100006 L 83.300003 191.100006" class="st16" style="fill: rgb(189, 243, 126);"/>
		</g>
<g transform="matrix(0.9999999999999999, 0, 0, 0.9999999999999999, -2.842170943040401e-14, 0)">
		<g>
			<path d="M 109.400002 169.199997 L 109.400002 177.199997" class="st15" style="fill: rgb(116, 140, 152);"/>
		</g>
		<g>
			<path class="st3" d="M109.4,177.6c-0.3,0-0.5-0.2-0.5-0.5v-7.9c0-0.3,0.2-0.5,0.5-0.5c0.3,0,0.5,0.2,0.5,0.5v7.9&#10;&#9;&#9;&#9;&#9;C109.9,177.4,109.7,177.6,109.4,177.6z" style="fill: rgb(88, 94, 109);"/>
		</g>
	</g><g transform="matrix(0.9999999999999999, 0, 0, 0.9999999999999999, -5.684341886080802e-14, 0)">
			<path d="M 109.5 159.399994 L 106.400002 176.199997 L 109.5 176.199997" class="st16" style="fill: rgb(189, 243, 126);"/>
		</g><g transform="matrix(0.9999999999999999, 0, 0, 0.9999999999999999, -5.684341886080802e-14, 0)">
			<path d="M 109.400002 159.399994 L 112.5 176.199997 L 109.400002 176.199997" class="st16" style="fill: rgb(189, 243, 126);"/>
		</g>








<path class="st4" d="M2.8,163.7c-1,0-2,0.1-2.9,0.2v46.2c1,0.1,1.9,0.2,2.9,0.2c12.9,0,23.3-10.4,23.3-23.3&#10;&#9;&#9;C26.1,174.2,15.7,163.7,2.8,163.7z" style="fill: rgb(249, 245, 235);" transform="matrix(0.9999999999999999, 0, 0, 0.9999999999999999, -2.842170943040401e-14, 0)"/>
<path class="st4" d="M21.6,187c-8.4,0-16,3.2-21.8,8.3v39.8h50.4c2.5-4.6,4-9.9,4-15.6C54.2,201.6,39.6,187,21.6,187z" style="fill: rgb(249, 245, 235);" transform="matrix(0.9999999999999999, 0, 0, 0.9999999999999999, -2.842170943040401e-14, 0)"/>
<path class="st4" d="M51.6,235.2h28.3c5.6-4.3,9.2-11,9.2-18.6c0-12.9-10.5-23.3-23.3-23.3c-12.9,0-23.3,10.4-23.3,23.3&#10;&#9;&#9;C42.4,224.2,46,230.9,51.6,235.2z" style="fill: rgb(249, 245, 235);" transform="matrix(0.9999999999999999, 0, 0, 0.9999999999999999, -2.842170943040401e-14, 0)"/>
<path class="st4" d="M124.4,235.2c0-0.5,0.1-1,0.1-1.5c0-12.9-10.5-23.3-23.3-23.3s-23.3,10.4-23.3,23.3c0,0.5,0,1,0.1,1.5H124.4z" style="fill: rgb(249, 245, 235);" transform="matrix(0.9999999999999999, 0, 0, 0.9999999999999999, -2.842170943040401e-14, 0)"/>
<path class="st4" d="M240.5,235.2c-12.5-18.7-33.9-31.1-58.1-31.1c-24.2,0-45.6,12.3-58.1,31.1H240.5z" style="fill: rgb(249, 245, 235);" transform="matrix(0.9999999999999999, 0, 0, 0.9999999999999999, -2.842170943040401e-14, 0)"/>
<path class="st4" d="M239.6,235.2c-2.2-10.6-11.6-18.6-22.9-18.6c-11.3,0-20.7,8-22.9,18.6H239.6z" style="fill: rgb(249, 245, 235);" transform="matrix(0.9999999999999999, 0, 0, 0.9999999999999999, -2.842170943040401e-14, 0)"/>
<path class="st4" d="M275.3,235.2c1.2-2.9,1.8-6.1,1.8-9.5c0-14.3-11.6-25.9-25.9-25.9c-14.3,0-25.9,11.6-25.9,25.9&#10;&#9;&#9;c0,3.3,0.6,6.5,1.8,9.5H275.3z" style="fill: rgb(249, 245, 235);" transform="matrix(0.9999999999999999, 0, 0, 0.9999999999999999, -2.842170943040401e-14, 0)"/>
<path class="st4" d="M307.1,235.2c2.4-3.9,3.7-8.5,3.7-13.4c0-14.3-11.6-25.9-25.9-25.9c-14.3,0-25.9,11.6-25.9,25.9&#10;&#9;&#9;c0,4.9,1.4,9.5,3.7,13.4H307.1z" style="fill: rgb(249, 245, 235);" transform="matrix(0.9999999999999999, 0, 0, 0.9999999999999999, -2.842170943040401e-14, 0)"/>
<path class="st4" d="M309,235.2h14.5c4.9-1.4,9.2-4.3,12.5-8.1v-33.5c-4.8-5.6-11.8-9.1-19.7-9.1c-14.3,0-25.9,11.6-25.9,25.9&#10;&#9;&#9;C290.3,222.1,298.2,232.1,309,235.2z" style="fill: rgb(249, 245, 235);" transform="matrix(0.9999999999999999, 0, 0, 0.9999999999999999, -2.842170943040401e-14, 0)"/>
<path class="st4" d="M336,158.6c-14.1,0.3-25.4,11.7-25.4,25.9c0,14.1,11.3,25.6,25.4,25.9V158.6z" style="fill: rgb(249, 245, 235);" transform="matrix(0.9999999999999999, 0, 0, 0.9999999999999999, -2.842170943040401e-14, 0)"/>
<path class="st4" d="M336,235.2v-27.4c-14.1,0.3-25.4,11.7-25.4,25.9c0,0.5,0,1,0,1.5H336z" style="fill: rgb(249, 245, 235);" transform="matrix(0.9999999999999999, 0, 0, 0.9999999999999999, -2.842170943040401e-14, 0)"/>
<path class="st4" d="M54.2,227.9c5.5,0,10.7-1.7,14.9-4.7c4.7,6.3,12.3,10.4,20.7,10.4c3.6,0,7-0.7,10.1-2&#10;&#9;&#9;c-0.1,0.7-0.1,1.4-0.1,2.1c0,0.5,0,1,0,1.5h51.7c0-0.5,0-1,0-1.5c0-14.3-11.6-25.9-25.9-25.9c-3.6,0-7,0.7-10.1,2&#10;&#9;&#9;c0.1-0.7,0.1-1.4,0.1-2.1c0-14.3-11.6-25.9-25.9-25.9c-5.5,0-10.7,1.7-14.9,4.7c-4.7-6.3-12.3-10.4-20.7-10.4&#10;&#9;&#9;c-14.3,0-25.9,11.6-25.9,25.9S39.9,227.9,54.2,227.9z" style="fill: rgb(249, 245, 235); opacity: 0.5;" transform="matrix(0.9999999999999999, 0, 0, 0.9999999999999999, -2.842170943040401e-14, 0)"/>
<path class="st4" d="M250.7,235.2c1.9-2.6,3.4-5.5,4.3-8.6c4.6,4.4,10.9,7.1,17.8,7.1c12.5,0,22.9-8.8,25.4-20.6&#10;&#9;&#9;c1.2,0.2,2.4,0.3,3.6,0.3c14.3,0,25.9-11.6,25.9-25.9s-11.6-25.9-25.9-25.9c-12.5,0-22.9,8.8-25.4,20.6c-1.2-0.2-2.4-0.3-3.6-0.3&#10;&#9;&#9;c-11.9,0-21.9,8-25,18.9c-4.6-4.4-10.9-7.1-17.8-7.1c-14.3,0-25.9,11.6-25.9,25.9c0,5.9,2,11.3,5.2,15.6H250.7z" style="fill: rgb(249, 245, 235); opacity: 0.5;" transform="matrix(0.9999999999999999, 0, 0, 0.9999999999999999, -2.842170943040401e-14, 0)"/>
<path d="M 147.599997 70.400002 A 9.4 9.4 0 0 1 138.199997 79.800001 A 9.4 9.4 0 0 1 128.799997 70.400002 A 9.4 9.4 0 0 1 138.199997 61.000002 A 9.4 9.4 0 0 1 147.599997 70.400002 Z" class="st18" style="fill: rgb(255, 231, 161);" transform="matrix(0.9999999999999999, 0, 0, 0.9999999999999999, -2.842170943040401e-14, 0)"/>
<path d="M 41.099998474121094 45.20000076293945 L 49 41.900001525878906 L 62 41.70000076293945 L 69.5 37.20000076293945 L 75.5 41.20000076293945 L 78.30000305175781 37.20000076293945 L 83.80000305175781 37.20000076293945 L 92.80000305175781 29 L 103.5 29 L 118.80000305175781 24.399999618530273 L 133.3000030517578 30.399999618530273 L 137.39999389648438 37 L 149.1999969482422 34.79999923706055 L 154.60000610351562 45.20000076293945 Z" class="st4" style="fill: rgb(249, 245, 235);" transform="matrix(0.9999999999999999, 0, 0, 0.9999999999999999, -2.842170943040401e-14, 0)"/>
</svg>