<?xml version="1.0" encoding="utf-8"?>
<svg id="master-artboard" viewBox="0 0 336 235.2" version="1.1" xmlns="http://www.w3.org/2000/svg" x="0px" y="0px" style="enable-background:new 0 0 336 235.2;" width="336px" height="235.1999969482422px">


<g transform="matrix(0.9999999999999999, 0, 0, 0.9999999999999999, -2.842170943040401e-14, 0)">
		
	</g>






































<path class="st4" d="M2.8,163.7c-1,0-2,0.1-2.9,0.2v46.2c1,0.1,1.9,0.2,2.9,0.2c12.9,0,23.3-10.4,23.3-23.3&#10;&#9;&#9;C26.1,174.2,15.7,163.7,2.8,163.7z" style="fill: rgb(249, 245, 235);" transform="matrix(0.9999999999999999, 0, 0, 0.9999999999999999, -2.842170943040401e-14, 0)"/>
<path class="st4" d="M21.6,187c-8.4,0-16,3.2-21.8,8.3v39.8h50.4c2.5-4.6,4-9.9,4-15.6C54.2,201.6,39.6,187,21.6,187z" style="fill: rgb(249, 245, 235);" transform="matrix(0.9999999999999999, 0, 0, 0.9999999999999999, -2.842170943040401e-14, 0)"/>
<path class="st4" d="M51.6,235.2h28.3c5.6-4.3,9.2-11,9.2-18.6c0-12.9-10.5-23.3-23.3-23.3c-12.9,0-23.3,10.4-23.3,23.3&#10;&#9;&#9;C42.4,224.2,46,230.9,51.6,235.2z" style="fill: rgb(249, 245, 235);" transform="matrix(0.9999999999999999, 0, 0, 0.9999999999999999, -2.842170943040401e-14, 0)"/>
<path class="st4" d="M124.4,235.2c0-0.5,0.1-1,0.1-1.5c0-12.9-10.5-23.3-23.3-23.3s-23.3,10.4-23.3,23.3c0,0.5,0,1,0.1,1.5H124.4z" style="fill: rgb(249, 245, 235);" transform="matrix(0.9999999999999999, 0, 0, 0.9999999999999999, -2.842170943040401e-14, 0)"/>
<path class="st4" d="M240.5,235.2c-12.5-18.7-33.9-31.1-58.1-31.1c-24.2,0-45.6,12.3-58.1,31.1H240.5z" style="fill: rgb(249, 245, 235);" transform="matrix(0.9999999999999999, 0, 0, 0.9999999999999999, -2.842170943040401e-14, 0)"/>
<path class="st4" d="M239.6,235.2c-2.2-10.6-11.6-18.6-22.9-18.6c-11.3,0-20.7,8-22.9,18.6H239.6z" style="fill: rgb(249, 245, 235);" transform="matrix(0.9999999999999999, 0, 0, 0.9999999999999999, -2.842170943040401e-14, 0)"/>
<path class="st4" d="M275.3,235.2c1.2-2.9,1.8-6.1,1.8-9.5c0-14.3-11.6-25.9-25.9-25.9c-14.3,0-25.9,11.6-25.9,25.9&#10;&#9;&#9;c0,3.3,0.6,6.5,1.8,9.5H275.3z" style="fill: rgb(249, 245, 235);" transform="matrix(0.9999999999999999, 0, 0, 0.9999999999999999, -2.842170943040401e-14, 0)"/>
<path class="st4" d="M307.1,235.2c2.4-3.9,3.7-8.5,3.7-13.4c0-14.3-11.6-25.9-25.9-25.9c-14.3,0-25.9,11.6-25.9,25.9&#10;&#9;&#9;c0,4.9,1.4,9.5,3.7,13.4H307.1z" style="fill: rgb(249, 245, 235);" transform="matrix(0.9999999999999999, 0, 0, 0.9999999999999999, -2.842170943040401e-14, 0)"/>
<path class="st4" d="M309,235.2h14.5c4.9-1.4,9.2-4.3,12.5-8.1v-33.5c-4.8-5.6-11.8-9.1-19.7-9.1c-14.3,0-25.9,11.6-25.9,25.9&#10;&#9;&#9;C290.3,222.1,298.2,232.1,309,235.2z" style="fill: rgb(249, 245, 235);" transform="matrix(0.9999999999999999, 0, 0, 0.9999999999999999, -2.842170943040401e-14, 0)"/>
<path class="st4" d="M336,158.6c-14.1,0.3-25.4,11.7-25.4,25.9c0,14.1,11.3,25.6,25.4,25.9V158.6z" style="fill: rgb(249, 245, 235);" transform="matrix(0.9999999999999999, 0, 0, 0.9999999999999999, -2.842170943040401e-14, 0)"/>
<path class="st4" d="M336,235.2v-27.4c-14.1,0.3-25.4,11.7-25.4,25.9c0,0.5,0,1,0,1.5H336z" style="fill: rgb(249, 245, 235);" transform="matrix(0.9999999999999999, 0, 0, 0.9999999999999999, -2.842170943040401e-14, 0)"/>
<path class="st4" d="M54.2,227.9c5.5,0,10.7-1.7,14.9-4.7c4.7,6.3,12.3,10.4,20.7,10.4c3.6,0,7-0.7,10.1-2&#10;&#9;&#9;c-0.1,0.7-0.1,1.4-0.1,2.1c0,0.5,0,1,0,1.5h51.7c0-0.5,0-1,0-1.5c0-14.3-11.6-25.9-25.9-25.9c-3.6,0-7,0.7-10.1,2&#10;&#9;&#9;c0.1-0.7,0.1-1.4,0.1-2.1c0-14.3-11.6-25.9-25.9-25.9c-5.5,0-10.7,1.7-14.9,4.7c-4.7-6.3-12.3-10.4-20.7-10.4&#10;&#9;&#9;c-14.3,0-25.9,11.6-25.9,25.9S39.9,227.9,54.2,227.9z" style="fill: rgb(249, 245, 235); opacity: 0.5;" transform="matrix(1, 0, 0, 1, -0.1969465819472873, 1.3786260168160709)"/>



</svg>