<svg width="1280" height="1280" xmlns="http://www.w3.org/2000/svg" preserveAspectRatio="xMidYMid meet">

 <g>
  <title>background</title>
  <rect fill="none" id="canvas_background" height="402" width="582" y="-1" x="-1"/>
 </g>
 <g>
  <title>Layer 1</title>
  <g id="svg_1" fill="#000000" transform="translate(0,1280) scale(0.10000000149011612,-0.10000000149011612) ">
   <path fill="#db5254" id="svg_2" d="m5664,11538c-38,-40 -55,-68 -68,-113c-19,-65 -44,-149 -70,-235c-9,-30 -74,-248 -145,-484l-128,-429l-97,-33c-176,-60 -334,-125 -503,-209l-168,-83l-100,53c-55,29 -154,82 -220,117c-66,36 -147,80 -180,98c-232,125 -441,239 -505,275c-41,22 -100,54 -131,70l-57,29l-108,-101c-60,-56 -315,-308 -568,-561l-458,-460l54,-98c30,-55 77,-139 103,-189c26,-49 62,-115 78,-145c17,-30 57,-103 89,-162c32,-60 86,-159 119,-220c34,-62 84,-156 112,-208c27,-52 56,-104 63,-115c8,-11 14,-26 14,-35c0,-8 -31,-76 -69,-150c-90,-176 -178,-385 -247,-587c-18,-50 -20,-52 -74,-68c-30,-10 -73,-23 -95,-30c-34,-11 -101,-31 -140,-41c-5,-2 -41,-12 -80,-24c-38,-12 -77,-23 -85,-25c-8,-2 -46,-13 -85,-25c-38,-12 -77,-23 -85,-25c-8,-2 -69,-20 -135,-40c-177,-53 -269,-81 -370,-110c-82,-24 -95,-31 -147,-83l-57,-57l-1,-712c0,-688 0,-713 19,-722c10,-6 56,-21 102,-35c46,-13 170,-50 274,-81c105,-31 197,-58 205,-60c8,-2 47,-14 85,-25c111,-34 154,-47 245,-73c113,-33 287,-85 326,-98c27,-8 34,-18 49,-67c79,-263 165,-482 275,-702l68,-136l-52,-100c-29,-54 -81,-151 -116,-214c-34,-63 -79,-146 -100,-185c-21,-38 -65,-119 -97,-180c-97,-177 -187,-344 -236,-436l-46,-85l510,-510l509,-509l58,29c31,17 91,49 132,71c82,46 409,224 535,291c44,24 134,72 200,109c66,36 152,82 191,102l71,36l179,-90c98,-50 240,-114 314,-143c74,-29 144,-56 155,-61c18,-7 175,-57 231,-74c14,-3 25,-19 32,-43c18,-63 66,-228 112,-377c11,-38 23,-77 25,-85c3,-13 70,-240 139,-470c13,-41 40,-132 61,-203l38,-127l723,0l723,0l55,66c31,36 56,68 57,72c1,13 8,37 29,107c12,39 23,77 25,85c2,8 13,47 25,85c12,39 23,77 25,85c2,8 13,44 24,80c11,36 63,211 116,390c53,179 100,332 105,340c4,8 48,28 97,44c156,50 363,137 548,229l180,90l55,-29c30,-16 118,-63 195,-105c125,-68 203,-110 445,-241c36,-20 119,-65 185,-100c66,-36 159,-86 206,-111c47,-26 92,-47 101,-47c18,0 1118,1103 1118,1122c0,7 -12,33 -26,58c-14,25 -45,81 -69,125c-23,44 -71,132 -105,195c-35,63 -138,255 -230,426c-93,170 -177,326 -189,345c-11,19 -21,41 -21,50c0,9 27,69 60,133c53,104 109,230 156,351c9,22 19,47 23,55c4,8 25,69 46,135c21,66 43,125 49,132c6,6 52,23 101,38c148,44 177,52 250,75c39,11 77,23 85,25c8,2 47,13 85,25c39,12 77,23 85,25c8,2 47,13 85,25c39,12 77,23 85,25c8,2 69,20 135,40c66,20 158,47 204,60c74,21 91,30 138,77l53,52l0,722l0,722l-62,21c-59,19 -325,98 -358,106c-8,2 -46,14 -85,25c-105,32 -151,46 -250,75c-49,15 -126,37 -170,50c-44,13 -118,35 -165,49c-47,13 -114,33 -150,45l-65,20l-34,103c-67,211 -195,507 -293,684l-45,80l80,145c43,79 99,182 124,229c57,106 223,413 360,665c24,44 51,95 60,113l17,33l-499,499c-275,275 -507,500 -515,500c-9,0 -24,-6 -35,-13c-11,-8 -58,-34 -105,-59c-90,-48 -253,-136 -447,-242c-65,-35 -145,-78 -178,-96c-92,-49 -169,-91 -302,-164l-121,-66l-159,79c-192,96 -331,153 -523,216c-80,26 -154,51 -166,55c-15,6 -26,29 -43,86c-33,117 -60,207 -161,544c-51,168 -102,341 -115,385c-13,44 -33,112 -45,150c-12,39 -23,78 -25,88c-2,9 -7,22 -10,27c-4,7 -260,10 -729,10l-723,0l-49,-52zm981,-3342c83,-16 89,-17 166,-35c248,-57 582,-231 789,-413c344,-302 557,-671 644,-1118c23,-119 27,-176 27,-362c0,-163 -9,-263 -30,-361c-6,-23 -13,-58 -16,-77c-13,-77 -89,-282 -150,-405c-178,-362 -407,-601 -735,-767c-355,-180 -750,-252 -1120,-203c-63,8 -126,17 -140,20c-14,3 -47,10 -75,16c-91,18 -310,97 -423,154c-560,280 -966,827 -1058,1425c-30,198 -30,501 1,650c3,14 8,41 11,60c31,174 128,426 228,593c120,200 230,324 406,456c216,163 515,302 745,346c73,14 203,35 240,39c83,9 412,-4 490,-18z"/>
  </g>
  <path id="svg_6" d="m738,743" opacity="0.5" fill-opacity="null" stroke-opacity="null" stroke-width="1.5" stroke="#000" fill="#db5254"/>
 </g>
</svg>